<?xml version="1.0" standalone="no"?>
<!DOCTYPE svg PUBLIC "-//W3C//DTD SVG 20010904//EN"
 "http://www.w3.org/TR/2001/REC-SVG-20010904/DTD/svg10.dtd">
<svg version="1.0" xmlns="http://www.w3.org/2000/svg"
 width="2000.000000pt" height="2000.000000pt" viewBox="0 0 2000.000000 2000.000000"
 preserveAspectRatio="xMidYMid meet">

<g transform="translate(0.000000,2000.000000) scale(0.100000,-0.100000)"
fill="#000000" stroke="none">
<path d="M9560 18280 c-397 -21 -732 -58 -1105 -121 -1607 -271 -3121 -976
-4370 -2034 -1933 -1638 -3098 -3974 -3236 -6494 -15 -272 -6 -1010 15 -1246
61 -690 174 -1283 361 -1905 389 -1294 1070 -2492 1992 -3510 184 -203 413
-427 538 -526 731 -579 1647 -820 2545 -668 634 107 1200 395 1669 849 455
441 782 1025 901 1613 77 381 63 852 -36 1247 -90 360 -235 702 -441 1044
-223 368 -452 657 -818 1031 -453 463 -633 657 -860 930 -665 799 -1013 1530
-1112 2340 -25 203 -25 681 0 904 129 1148 689 2186 1581 2928 422 351 918
625 1448 802 263 88 623 165 923 198 161 17 730 17 890 0 637 -71 1235 -264
1765 -572 1031 -599 1775 -1582 2070 -2735 123 -482 165 -1001 119 -1470 -63
-647 -288 -1241 -697 -1845 -270 -398 -588 -770 -1139 -1333 -457 -465 -661
-720 -900 -1121 -280 -470 -453 -954 -530 -1481 -25 -170 -24 -582 0 -750 100
-675 386 -1233 881 -1719 498 -488 1114 -787 1821 -882 182 -25 589 -25 770 0
536 73 1007 252 1440 547 294 200 624 521 996 969 944 1138 1585 2444 1904
3881 164 739 236 1533 207 2292 -14 347 -32 590 -62 831 -184 1440 -678 2765
-1475 3956 -1034 1546 -2514 2738 -4245 3422 -878 347 -1775 548 -2765 618
-204 15 -842 20 -1045 10z m835 -100 c371 -20 651 -47 910 -90 99 -16 228 -36
287 -44 59 -9 142 -24 185 -35 43 -11 148 -34 233 -51 85 -17 216 -49 290 -70
74 -21 171 -48 215 -60 106 -27 634 -207 760 -259 55 -23 154 -62 220 -87 66
-25 134 -53 151 -63 37 -22 321 -151 332 -151 4 0 47 -22 94 -50 48 -27 163
-88 255 -136 92 -47 179 -94 193 -104 14 -10 108 -68 209 -129 102 -62 205
-129 230 -150 54 -45 170 -123 261 -175 36 -21 101 -68 145 -105 116 -96 202
-162 266 -203 30 -19 91 -69 135 -109 43 -41 122 -110 174 -153 52 -44 160
-144 240 -222 80 -79 168 -161 197 -183 28 -22 76 -71 106 -108 30 -37 69 -81
86 -97 17 -17 31 -35 31 -41 0 -6 30 -38 67 -71 92 -82 123 -117 160 -180 18
-30 31 -54 28 -54 -2 0 -19 17 -39 37 -33 35 -36 36 -54 20 -17 -16 -20 -15
-48 16 -54 58 -57 63 -43 85 15 25 3 42 -130 182 -88 92 -90 94 -115 80 -24
-13 -28 -11 -57 16 -42 40 -53 62 -39 79 17 21 3 40 -106 140 -129 119 -132
121 -157 106 -18 -12 -25 -8 -65 32 -39 39 -44 48 -32 62 17 20 8 30 -138 152
-108 91 -114 94 -132 78 -21 -19 -25 -17 -90 38 -25 21 -30 31 -21 40 22 22
10 36 -91 114 -169 130 -166 128 -188 108 -18 -17 -21 -16 -70 20 -37 27 -49
42 -45 54 4 9 7 20 8 25 2 8 -210 160 -261 188 -21 11 -26 10 -37 -5 -7 -9
-15 -17 -19 -17 -6 0 -78 46 -104 66 -2 1 1 11 7 22 9 17 7 24 -17 40 -48 35
-263 162 -272 162 -5 0 -14 -9 -20 -19 -10 -19 -12 -19 -65 12 -50 28 -55 34
-50 58 6 25 -1 30 -147 107 -153 81 -153 81 -169 60 l-16 -21 -57 26 c-54 25
-57 28 -52 55 7 27 4 29 -129 90 -154 71 -195 83 -195 58 0 -21 -8 -20 -75 5
-53 20 -56 23 -50 49 6 27 5 28 -150 89 -85 33 -159 61 -164 61 -5 0 -13 -9
-16 -21 -4 -11 -12 -19 -18 -16 -7 2 -36 12 -65 21 -47 16 -52 21 -50 44 3 22
-3 28 -53 47 -98 39 -273 88 -276 79 -12 -34 -19 -36 -82 -18 -57 15 -62 19
-57 40 3 12 2 25 -2 28 -5 3 -80 26 -167 51 -161 46 -174 46 -175 6 0 -14 -5
-13 -92 10 -31 8 -38 14 -38 34 0 27 -1 28 -188 70 -135 30 -152 31 -159 5 -6
-23 -22 -24 -91 -9 -45 9 -49 12 -44 35 2 13 3 24 1 24 -2 0 -69 11 -149 25
-179 31 -197 31 -205 5 -7 -21 -30 -25 -97 -14 -31 6 -38 11 -38 30 0 16 -7
25 -23 29 -34 9 -321 33 -329 28 -5 -2 -8 -13 -8 -24 0 -15 -7 -19 -34 -19
-66 0 -96 11 -96 35 0 20 -6 22 -82 28 -46 4 -127 7 -180 7 -90 0 -98 -2 -98
-19 0 -42 -126 -40 -132 2 -3 22 -5 22 -178 22 -174 0 -175 0 -178 -22 -4 -27
-30 -36 -93 -31 -38 3 -44 6 -47 27 -4 24 -4 24 -100 17 -254 -17 -252 -17
-252 -41 0 -18 -7 -24 -37 -29 -21 -3 -53 -6 -70 -6 -27 0 -33 4 -33 22 0 20
-3 21 -97 15 -54 -3 -133 -11 -175 -18 -75 -11 -78 -12 -78 -39 0 -25 -4 -28
-46 -34 -79 -10 -94 -8 -94 14 0 26 -16 26 -192 -5 -78 -14 -146 -25 -150 -25
-5 0 -8 -13 -8 -29 0 -26 -4 -29 -42 -35 -24 -4 -53 -9 -65 -13 -16 -3 -23 -1
-23 8 -1 38 -13 38 -180 0 -163 -36 -165 -37 -170 -66 -4 -25 -12 -30 -55 -42
-65 -16 -75 -16 -75 2 0 28 -25 26 -156 -10 -203 -57 -195 -53 -192 -82 3 -23
-3 -28 -47 -44 -66 -23 -72 -23 -80 2 -9 26 -16 25 -203 -43 -134 -48 -143
-53 -138 -74 7 -25 -5 -35 -75 -60 -39 -13 -41 -13 -46 6 -3 11 -10 20 -15 20
-35 0 -324 -123 -321 -137 1 -4 4 -15 8 -24 4 -12 -9 -22 -55 -42 -59 -25 -61
-25 -73 -6 -6 10 -15 19 -19 19 -4 0 -75 -32 -159 -72 -145 -69 -151 -73 -145
-98 4 -24 -1 -29 -50 -56 -54 -28 -55 -28 -69 -10 -14 19 -15 19 -57 1 -24
-11 -93 -48 -155 -83 -106 -59 -112 -65 -107 -90 5 -24 0 -30 -47 -56 -50 -28
-53 -28 -65 -11 -16 22 -34 16 -129 -44 -33 -21 -88 -55 -123 -77 -56 -35 -62
-42 -57 -65 5 -23 -1 -32 -42 -62 l-48 -36 -18 21 -18 21 -87 -59 c-208 -143
-200 -136 -195 -169 3 -26 -2 -34 -43 -64 -41 -31 -47 -33 -56 -18 -16 30 -10
34 -226 -133 -66 -51 -70 -57 -66 -86 5 -27 0 -35 -37 -66 -42 -35 -43 -35
-58 -16 -16 19 -17 18 -61 -19 -25 -20 -84 -73 -132 -116 -77 -69 -87 -82 -82
-105 4 -22 -2 -34 -35 -67 -38 -36 -42 -38 -58 -23 -15 16 -20 14 -67 -25 -28
-23 -86 -77 -128 -119 -72 -72 -77 -79 -71 -112 4 -29 0 -39 -30 -72 -33 -36
-36 -38 -54 -22 -17 15 -22 12 -91 -48 -40 -35 -69 -64 -66 -64 4 0 -3 -11
-16 -25 -13 -14 -25 -23 -28 -20 -13 12 -43 -50 -50 -105 -11 -76 -46 -120
-81 -100 -19 10 -25 8 -42 -14 -25 -32 -39 -33 -39 -3 0 34 24 63 160 198 69
68 141 147 160 174 43 62 440 459 514 514 30 22 108 92 173 154 65 62 161 145
214 184 53 39 141 108 194 154 54 45 121 96 149 113 58 36 151 102 273 194 46
35 107 75 135 89 29 15 129 76 223 138 93 61 224 140 290 175 66 35 157 85
202 112 46 27 118 64 160 82 43 18 141 65 218 103 77 39 220 102 318 142 98
39 194 79 215 90 20 10 129 50 242 89 312 108 376 129 490 162 58 17 157 46
220 65 221 65 665 157 1035 215 178 28 488 61 700 75 132 9 254 17 270 19 78
8 591 5 760 -4z m-637 -176 c4 -27 41 -34 172 -33 142 1 184 9 188 37 3 20 9
22 63 22 53 0 59 -2 64 -23 5 -18 17 -26 53 -35 40 -10 86 -12 274 -12 20 0
27 5 30 22 4 27 24 32 84 23 33 -5 43 -11 46 -27 2 -14 14 -25 33 -31 48 -15
216 -33 273 -29 46 4 52 6 52 27 0 21 3 22 48 17 59 -6 82 -18 82 -42 0 -23
61 -44 185 -62 118 -17 161 -13 168 14 5 19 11 20 58 14 64 -9 69 -11 69 -40
0 -28 40 -48 153 -75 107 -25 188 -25 195 1 5 21 39 23 92 5 28 -10 34 -17 32
-35 -2 -14 3 -24 15 -29 10 -3 25 -12 33 -19 25 -21 191 -64 246 -64 44 0 54
3 59 21 4 12 13 18 20 15 8 -3 32 -10 54 -16 36 -9 41 -14 41 -40 0 -17 5 -30
10 -30 6 0 23 -9 38 -20 39 -28 198 -80 247 -80 32 0 44 5 51 19 9 20 10 20
64 -2 49 -20 55 -25 52 -50 -2 -18 2 -27 11 -27 8 0 20 -6 26 -14 18 -21 178
-86 236 -96 44 -7 52 -6 65 11 15 20 16 19 69 -2 48 -20 52 -25 48 -48 -5 -22
2 -31 41 -57 69 -47 201 -107 221 -101 10 2 25 1 33 -4 10 -6 21 -2 33 11 17
19 18 19 67 -6 43 -22 49 -28 44 -49 -4 -15 -1 -27 8 -32 8 -4 30 -22 48 -39
34 -31 166 -95 221 -108 17 -4 36 -1 50 8 21 14 26 13 66 -10 36 -22 42 -30
37 -50 -5 -19 2 -32 33 -62 79 -77 253 -161 272 -131 11 18 46 13 83 -11 36
-25 45 -43 26 -55 -19 -11 59 -92 139 -144 91 -60 134 -76 161 -58 38 23 128
-46 100 -76 -15 -16 47 -91 119 -146 80 -60 131 -81 178 -74 23 4 40 -1 63
-17 27 -19 31 -27 26 -52 -8 -39 24 -85 115 -166 81 -72 106 -84 166 -81 56 4
98 -31 89 -74 -3 -16 1 -44 9 -63 13 -32 13 -33 -3 -25 -9 5 -66 55 -127 111
-148 136 -471 398 -669 542 -147 107 -208 149 -489 333 -91 60 -190 119 -422
251 -303 172 -872 434 -1230 564 -218 80 -618 207 -800 254 -126 33 -482 115
-525 121 -25 3 -90 15 -145 25 -394 76 -868 125 -1340 139 -470 14 -1099 -21
-1525 -85 -727 -109 -1310 -267 -2057 -558 -139 -54 -511 -224 -628 -286 -38
-21 -131 -69 -205 -108 -385 -200 -907 -539 -1268 -824 -280 -220 -490 -407
-788 -701 -194 -190 -249 -240 -240 -215 6 18 17 42 23 53 8 13 8 25 2 38 -7
13 -5 25 11 47 17 24 29 30 58 30 77 0 107 17 181 99 39 43 71 85 71 92 0 7
10 23 22 36 20 21 20 24 5 41 -16 17 -15 20 11 45 20 19 39 27 65 27 21 0 52
6 70 14 40 17 156 119 181 160 10 17 26 36 35 43 13 9 14 14 4 24 -7 7 -13 19
-13 25 0 22 59 56 98 56 20 0 50 7 67 15 45 23 133 94 189 152 44 44 48 52 35
67 -12 15 -10 20 21 45 33 28 83 39 94 20 13 -21 186 91 261 169 25 26 28 33
17 50 -10 17 -7 22 34 46 39 23 49 25 71 15 32 -15 59 -5 153 53 98 61 155
113 155 144 0 20 9 31 38 48 36 20 87 22 87 4 0 -14 90 19 136 50 25 16 59 37
75 46 16 8 38 21 47 29 9 8 25 21 36 28 15 11 16 18 8 34 -10 18 -6 22 39 44
42 19 54 21 70 11 41 -26 180 24 291 105 41 30 46 37 37 54 -9 17 -4 22 38 41
44 19 49 20 74 5 20 -11 37 -13 63 -7 46 10 187 69 206 85 8 8 28 19 44 24 23
9 27 16 24 35 -4 21 1 27 41 44 46 19 91 15 91 -7 0 -21 151 21 263 73 61 28
67 34 63 56 -4 23 0 27 49 41 52 15 55 15 71 -2 23 -25 58 -24 166 7 121 35
191 71 184 96 -5 20 11 29 71 42 25 6 36 3 52 -13 13 -13 34 -21 55 -21 43 0
202 37 236 55 14 7 33 16 43 19 10 3 17 15 17 29 0 21 7 26 53 35 49 10 53 10
72 -13 17 -21 27 -23 65 -20 108 10 228 34 236 47 3 4 16 8 30 8 19 0 24 5 24
25 0 25 3 27 77 39 28 5 36 1 50 -21 17 -26 18 -26 111 -19 52 4 127 14 168
23 66 14 74 19 74 39 0 27 26 37 86 32 28 -2 42 -9 48 -24 9 -20 18 -22 112
-23 89 -1 126 3 222 24 13 3 22 13 22 24 0 23 19 30 80 28 38 -2 45 -5 48 -23z
m912 -138 c799 -69 1458 -204 2170 -445 1126 -381 2185 -1007 3065 -1810 137
-126 461 -450 580 -581 416 -458 839 -1038 1105 -1510 120 -214 152 -274 245
-460 151 -300 260 -554 399 -925 75 -200 229 -707 255 -840 7 -33 23 -109 36
-170 75 -336 110 -534 155 -860 84 -620 96 -1348 34 -2005 -130 -1376 -602
-2724 -1365 -3900 -329 -507 -737 -1010 -1130 -1395 -331 -323 -652 -525
-1066 -671 -160 -56 -430 -120 -613 -146 -145 -20 -537 -17 -680 5 -629 98
-1129 343 -1564 766 -190 186 -300 326 -479 609 l-27 42 -171 0 -170 0 -35 77
c-36 78 -126 338 -139 400 l-7 33 74 0 73 0 214 -195 c202 -184 217 -200 259
-278 196 -368 537 -731 912 -972 200 -129 509 -268 696 -315 49 -13 94 -27
100 -32 7 -5 16 -8 20 -6 11 2 48 -9 89 -27 104 -46 588 -64 840 -31 332 44
602 126 895 272 299 149 483 285 760 563 1129 1133 1964 2694 2289 4281 39
192 85 447 95 525 3 22 8 58 10 80 3 22 10 76 16 120 42 335 61 662 61 1065
-1 378 -3 430 -32 760 -81 918 -308 1826 -663 2653 -168 391 -401 839 -609
1172 -181 290 -451 666 -657 915 -359 434 -828 900 -1257 1247 -1145 930
-2560 1565 -4014 1803 -522 85 -872 113 -1429 113 -696 1 -1269 -60 -1906
-203 -699 -156 -1304 -371 -1959 -696 -513 -253 -919 -505 -1380 -853 -760
-573 -1449 -1304 -1982 -2101 -769 -1152 -1240 -2437 -1407 -3840 -65 -547
-73 -1228 -20 -1800 157 -1702 813 -3316 1887 -4643 288 -357 662 -744 862
-893 411 -307 843 -480 1360 -545 124 -16 490 -16 605 -1 131 18 220 36 220
44 0 4 9 8 19 8 38 0 331 89 443 135 741 303 1319 922 1565 1678 l45 137 210
0 c195 0 209 -1 204 -17 -3 -10 -8 -30 -12 -45 l-6 -28 -153 0 c-115 0 -155
-3 -164 -13 -6 -8 -20 -44 -31 -80 -55 -178 -190 -453 -315 -642 -291 -441
-692 -789 -1162 -1009 -500 -234 -1074 -311 -1613 -215 -541 95 -1010 316
-1401 661 -199 174 -470 465 -720 772 -141 174 -326 421 -451 606 -713 1050
-1187 2232 -1392 3475 -48 289 -55 344 -75 570 -18 195 -23 262 -31 392 -11
166 -4 967 9 1103 5 58 12 144 16 190 3 47 8 103 11 125 2 22 7 63 9 90 25
229 102 673 166 945 200 863 493 1608 944 2405 48 84 215 355 278 450 568 853
1266 1590 2082 2202 1338 1001 2978 1606 4645 1713 91 6 190 12 220 14 139 9
867 -4 1040 -18z m-380 -126 c596 -23 1065 -82 1600 -201 720 -160 1385 -400
2055 -743 826 -423 1558 -962 2215 -1632 1148 -1171 1929 -2629 2270 -4239 28
-132 55 -274 60 -315 6 -41 14 -97 20 -125 15 -81 48 -329 64 -485 37 -358 46
-1171 16 -1520 -53 -632 -145 -1155 -304 -1715 -105 -372 -203 -644 -408
-1130 -104 -248 -398 -802 -559 -1055 -368 -579 -738 -1047 -1169 -1481 -199
-201 -400 -358 -585 -459 -33 -18 -73 -41 -90 -50 -108 -65 -431 -189 -610
-235 -384 -96 -895 -98 -1272 -4 -703 175 -1333 662 -1674 1294 -38 70 -59 93
-267 281 l-226 204 -82 0 c-46 0 -85 3 -87 8 -2 4 -7 24 -11 45 l-7 37 161 0
162 0 169 -153 170 -154 48 -104 c284 -624 873 -1131 1561 -1345 53 -17 296
-71 360 -80 25 -4 51 -12 59 -18 25 -20 514 -14 651 7 585 91 1077 342 1495
761 989 992 1753 2308 2140 3685 62 220 142 564 169 729 3 15 16 92 30 172 94
541 133 1209 106 1775 -51 1049 -263 1999 -653 2935 -888 2126 -2627 3819
-4778 4650 -818 316 -1672 503 -2564 560 -88 5 -322 10 -520 10 -198 0 -432
-5 -520 -10 -1395 -89 -2692 -491 -3879 -1203 -428 -256 -850 -566 -1256 -921
-156 -136 -619 -601 -759 -761 -776 -888 -1350 -1894 -1705 -2990 -166 -511
-280 -1022 -355 -1592 -53 -400 -76 -1120 -51 -1583 90 -1650 682 -3264 1686
-4599 311 -414 732 -879 964 -1065 366 -293 786 -477 1261 -553 142 -22 649
-27 671 -6 6 7 23 13 36 13 13 0 69 9 125 21 366 74 644 188 931 380 317 212
584 490 781 815 145 237 220 420 302 734 l9 35 277 3 277 2 0 -27 c0 -16 -3
-38 -6 -50 -6 -23 -7 -23 -229 -23 -173 0 -225 -3 -234 -13 -6 -8 -22 -54 -37
-103 -63 -220 -181 -470 -319 -680 -447 -676 -1142 -1102 -1933 -1185 -181
-19 -514 -7 -702 25 -444 76 -834 246 -1205 525 -199 149 -620 595 -915 969
-726 921 -1272 2020 -1564 3152 -100 386 -165 733 -215 1150 -44 365 -51 484
-55 960 -5 545 18 878 99 1415 49 324 170 843 279 1195 540 1744 1611 3256
3092 4366 645 483 1421 902 2183 1178 863 314 1722 481 2641 515 304 12 332
12 610 1z m205 -150 c1010 -63 1948 -285 2869 -677 176 -74 618 -293 791 -390
285 -161 526 -314 776 -494 1460 -1047 2535 -2499 3102 -4189 146 -435 232
-779 327 -1310 22 -122 70 -529 92 -770 18 -199 18 -1051 0 -1260 -128 -1491
-567 -2782 -1367 -4020 -301 -465 -787 -1052 -1144 -1384 -357 -331 -796 -547
-1298 -640 -172 -32 -567 -41 -748 -17 -799 106 -1520 619 -1882 1341 -35 68
-63 130 -63 137 0 6 -84 89 -187 182 l-188 171 -171 0 c-170 0 -172 0 -178 23
-3 12 -6 34 -6 50 l0 27 240 0 240 0 143 -130 c121 -109 146 -137 157 -173 25
-86 117 -285 179 -390 294 -492 768 -873 1306 -1050 179 -59 234 -72 375 -91
63 -8 171 -23 239 -32 333 -44 815 53 1196 241 335 165 555 343 915 740 1001
1104 1701 2478 1999 3925 38 183 53 266 65 350 3 19 16 114 30 210 52 366 76
724 76 1160 0 774 -98 1507 -301 2241 -315 1145 -873 2213 -1634 3125 -1320
1583 -3155 2615 -5195 2923 -207 31 -522 62 -650 64 l-115 2 -3 -224 c-1 -143
1 -228 8 -236 6 -8 51 -15 113 -19 330 -22 822 -96 1172 -177 1130 -261 2163
-749 3062 -1446 1987 -1541 3113 -3903 3059 -6418 -12 -566 -67 -1023 -187
-1560 -288 -1293 -890 -2475 -1773 -3485 -152 -173 -390 -414 -486 -489 -194
-154 -394 -260 -637 -340 l-161 -54 -87 -87 c-95 -95 -101 -116 -45 -137 24
-9 43 -7 107 13 43 14 101 27 128 30 107 10 380 119 545 216 214 126 362 248
573 473 321 341 600 690 827 1030 8 12 29 42 46 66 53 75 201 320 320 529 58
101 267 515 323 640 18 41 75 179 126 307 325 809 511 1650 565 2548 13 218
13 701 0 920 -76 1282 -429 2479 -1053 3570 -664 1162 -1621 2152 -2767 2862
-967 599 -2078 993 -3210 1137 -107 14 -237 28 -287 32 l-93 7 0 48 c0 33 4
49 13 49 6 0 92 -9 190 -20 904 -100 1723 -323 2520 -684 882 -400 1654 -931
2356 -1621 559 -550 1023 -1157 1411 -1850 84 -149 295 -580 363 -740 367
-865 579 -1748 647 -2700 49 -698 -7 -1515 -151 -2200 -108 -513 -249 -976
-437 -1430 -111 -271 -124 -298 -236 -525 -389 -788 -857 -1451 -1476 -2094
-210 -218 -434 -379 -700 -504 -245 -116 -443 -168 -777 -207 l-53 -6 0 52 c0
53 19 89 47 89 10 0 13 20 13 80 l0 80 -31 0 c-27 0 -30 3 -27 27 2 19 10 29
28 33 24 6 25 10 28 83 l3 77 -30 0 c-37 0 -45 21 -36 93 l7 53 92 12 c231 29
536 154 731 299 158 117 453 430 717 760 318 396 606 847 835 1306 123 246
224 473 230 517 5 32 0 40 -50 88 l-56 52 -243 0 c-134 0 -248 -4 -255 -8 -7
-4 -42 -73 -78 -152 -196 -430 -500 -935 -779 -1294 l-46 -59 0 -124 c0 -102
3 -123 15 -124 8 -1 19 -2 24 -3 30 -3 446 583 614 865 83 139 259 472 327
617 l43 92 71 0 c67 0 72 -1 108 -37 21 -20 38 -45 38 -54 0 -27 -239 -497
-346 -679 -192 -329 -446 -692 -683 -979 -51 -61 -97 -111 -102 -109 -4 2
-120 112 -258 246 l-250 242 -173 0 -173 0 -13 66 c-48 253 -296 428 -544 386
-264 -45 -444 -286 -408 -544 16 -111 55 -191 131 -270 186 -191 479 -202 675
-25 l52 47 164 0 163 0 205 -206 205 -205 -115 -112 c-229 -222 -472 -347
-775 -399 -174 -30 -374 -22 -538 20 -348 90 -643 325 -807 642 -217 422 -183
879 100 1352 148 249 266 392 666 803 580 598 834 885 1150 1305 197 261 429
621 560 867 l49 93 412 0 411 0 169 -71 c92 -38 187 -78 211 -87 42 -16 42
-16 41 -67 -1 -93 10 -93 -227 11 l-213 94 -295 0 -294 0 -28 -50 c-211 -389
-487 -803 -765 -1150 -295 -367 -538 -636 -1017 -1125 -151 -154 -313 -325
-359 -380 -225 -270 -375 -530 -432 -754 -106 -414 37 -828 373 -1081 297
-224 691 -265 1066 -112 139 57 362 217 362 260 0 20 -99 122 -118 122 -8 0
-37 -20 -65 -43 -172 -144 -366 -222 -587 -234 -401 -21 -735 213 -845 593
-64 221 -35 454 86 697 112 224 209 344 608 752 585 598 911 966 1234 1394
148 195 376 537 495 741 l90 155 214 3 c149 2 222 -1 243 -10 39 -15 428 -197
433 -202 5 -6 -46 -309 -74 -436 -72 -323 -150 -598 -256 -894 l-61 -169 66
-64 65 -63 235 0 c195 0 238 3 250 15 15 15 145 397 191 560 140 503 230 1034
266 1559 16 240 14 805 -5 1051 -26 352 -76 704 -146 1025 -251 1170 -762
2239 -1512 3164 -141 174 -359 416 -374 416 -25 0 -142 -64 -146 -79 -2 -9 41
-104 94 -211 307 -614 494 -1209 588 -1875 49 -348 56 -450 56 -865 0 -303 -4
-420 -18 -550 -40 -367 -121 -757 -219 -1064 -30 -95 -38 -133 -31 -145 9 -14
60 -17 439 -21 l429 -5 118 -34 117 -33 0 -65 c0 -57 -2 -64 -17 -59 -10 3
-79 23 -154 46 l-136 40 -636 -2 c-350 -2 -637 -1 -637 3 0 3 27 78 60 167
137 371 230 767 277 1184 13 118 17 241 18 538 0 472 -15 646 -90 1061 -267
1462 -1134 2786 -2385 3641 -743 508 -1594 828 -2502 940 -146 18 -179 19
-192 9 -14 -12 -16 -78 -16 -593 0 -525 -2 -580 -16 -574 -9 3 -31 6 -50 6
l-34 0 0 794 0 795 -79 83 -79 83 -287 -2 c-251 -2 -289 -4 -305 -18 -18 -16
-18 -52 -13 -875 l6 -858 -49 -4 c-27 -3 -51 -3 -54 0 -3 2 -3 261 -1 576 3
520 2 573 -13 585 -36 30 -560 -53 -911 -144 -844 -219 -1585 -603 -2265
-1173 -164 -138 -538 -513 -674 -677 -735 -884 -1172 -1899 -1300 -3020 -38
-332 -45 -788 -16 -1085 115 -1176 606 -2212 1571 -3317 177 -201 317 -352
645 -688 360 -371 477 -505 631 -725 252 -363 417 -744 462 -1073 18 -127 14
-349 -8 -479 -81 -471 -388 -927 -822 -1219 -678 -455 -1586 -411 -2259 109
-213 165 -641 643 -937 1047 -456 622 -803 1274 -1068 2006 -98 270 -223 700
-259 889 l-14 70 1559 0 c1533 0 1558 0 1569 19 8 17 -2 35 -68 118 -211 265
-375 495 -533 748 l-107 170 -1001 3 -1001 2 -5 23 c-11 47 -25 402 -25 622 1
1338 361 2631 1053 3780 76 126 277 429 314 473 25 30 31 32 55 23 l27 -10
-50 -148 c-351 -1045 -418 -2197 -188 -3218 70 -306 178 -639 304 -936 68
-159 94 -211 109 -221 6 -4 46 -8 88 -8 104 0 110 11 62 111 -230 479 -397
1041 -464 1559 -37 294 -44 412 -44 735 1 953 197 1791 621 2657 100 205 114
239 103 253 -16 19 -123 75 -144 75 -14 0 -219 -227 -352 -390 -894 -1100
-1466 -2445 -1628 -3825 -46 -388 -51 -482 -51 -930 1 -330 5 -473 18 -615 10
-102 22 -189 27 -194 6 -6 402 -9 1038 -7 l1028 3 39 -64 c69 -114 236 -361
322 -477 47 -62 87 -120 90 -129 6 -13 -141 -14 -1481 -8 -1157 6 -1490 5
-1501 -4 -22 -18 -19 -41 30 -263 91 -406 221 -830 373 -1212 112 -283 300
-686 426 -915 31 -55 57 -106 59 -113 1 -6 9 -18 17 -25 10 -9 10 -11 2 -7
-11 6 -12 3 -3 -14 7 -11 15 -21 20 -21 4 0 8 -6 8 -13 0 -6 12 -31 26 -54 15
-24 27 -46 27 -49 0 -4 41 -70 91 -148 319 -493 544 -785 923 -1195 282 -307
499 -475 782 -607 123 -58 342 -131 414 -138 30 -3 84 -10 120 -16 89 -15 96
-15 255 -29 282 -25 612 24 880 131 512 203 917 584 1156 1083 220 461 236
953 48 1459 -103 278 -250 542 -459 821 -147 196 -268 332 -563 633 -217 220
-266 276 -257 287 15 18 12 22 -89 138 -81 92 -86 96 -104 80 -17 -17 -20 -16
-50 19 -435 497 -594 700 -824 1050 -422 641 -682 1280 -797 1953 -54 316 -61
413 -61 820 0 423 9 533 71 908 158 944 580 1853 1210 2602 131 157 157 180
181 164 18 -10 29 -2 109 81 104 108 110 116 93 136 -15 18 13 49 176 193 828
735 1844 1202 2928 1346 l47 6 0 -495 0 -496 -25 -5 c-14 -3 -36 -7 -50 -10
l-25 -5 0 439 c0 339 -3 441 -13 449 -21 18 -398 -56 -657 -129 -672 -191
-1305 -508 -1843 -926 -103 -80 -110 -84 -127 -68 -11 10 -24 14 -32 9 -20
-12 -208 -174 -208 -180 0 -2 5 -13 12 -24 11 -17 -5 -35 -152 -182 -436 -432
-760 -881 -1035 -1430 -302 -606 -476 -1216 -546 -1913 -18 -173 -18 -760 -1
-925 104 -1006 507 -1921 1246 -2834 80 -98 86 -109 72 -125 -14 -15 -9 -24
60 -106 111 -132 110 -131 130 -115 14 13 20 10 52 -25 139 -156 390 -422 623
-661 459 -469 674 -752 874 -1149 154 -305 242 -605 261 -884 4 -53 11 -102
17 -108 7 -10 108 -13 444 -13 l434 0 -3 -53 -3 -52 -440 -5 -440 -5 -17 -123
c-33 -235 -93 -423 -201 -637 -341 -671 -998 -1130 -1726 -1206 -140 -14 -436
-6 -576 16 -363 57 -707 202 -1006 425 -132 98 -230 190 -422 395 -938 1000
-1622 2255 -1955 3590 -62 246 -114 506 -110 543 l3 27 1347 3 c1288 2 1348 3
1357 20 8 15 -12 51 -102 188 -62 93 -126 193 -144 222 l-32 52 -1109 0 -1110
0 -6 33 c-14 82 -37 386 -46 630 -33 849 87 1758 341 2583 381 1237 1040 2333
1959 3255 965 969 2128 1655 3440 2028 471 135 1035 237 1500 272 119 9 158
15 168 27 9 12 12 73 12 228 0 178 -2 214 -15 224 -19 16 -145 9 -430 -21
-907 -95 -1822 -355 -2674 -759 -1367 -648 -2552 -1676 -3393 -2945 -515 -778
-897 -1631 -1132 -2535 -42 -163 -79 -331 -126 -574 -28 -141 -86 -571 -104
-766 -44 -476 -47 -1012 -6 -1460 14 -150 74 -642 94 -775 2 -11 7 -40 11 -65
4 -25 17 -93 31 -151 13 -58 26 -123 30 -145 11 -70 84 -357 139 -544 351
-1203 978 -2321 1825 -3255 357 -394 581 -576 909 -739 412 -204 883 -288
1301 -233 74 9 155 20 180 23 159 19 446 113 644 209 240 117 458 274 658 477
321 324 547 737 634 1157 l27 131 349 0 348 0 0 -45 0 -45 -293 0 c-267 0
-295 -2 -309 -17 -9 -10 -23 -54 -33 -98 -67 -306 -258 -685 -489 -970 -98
-120 -308 -323 -426 -411 -330 -248 -694 -406 -1087 -473 -242 -41 -620 -37
-858 9 -493 96 -933 320 -1300 662 -107 100 -391 410 -548 598 -743 892 -1301
1944 -1620 3055 -116 403 -223 914 -261 1245 -4 30 -9 71 -11 90 -20 152 -46
469 -54 655 -10 214 -5 696 9 914 69 1039 306 1991 729 2933 684 1523 1838
2837 3274 3727 405 251 919 508 1372 686 797 312 1692 509 2565 564 195 12
828 13 1015 1z m-305 -184 l0 -44 -62 -6 c-104 -9 -116 -7 -120 23 l-3 26
-145 0 -145 0 0 -75 c0 -70 1 -75 23 -78 12 -2 22 -10 22 -17 0 -7 -10 -15
-22 -17 -21 -3 -23 -9 -26 -75 -3 -72 -3 -73 23 -73 33 0 36 -37 3 -42 -21 -3
-23 -8 -23 -73 0 -65 2 -70 23 -73 30 -4 28 -26 -3 -40 -25 -11 -26 -16 -23
-79 3 -62 5 -68 26 -71 27 -4 30 -32 3 -32 -39 0 -39 -143 0 -155 25 -8 25
-35 -1 -35 -18 0 -20 -7 -20 -75 0 -68 2 -75 20 -75 20 0 20 -7 20 -280 l0
-280 -50 0 -50 0 0 838 c0 461 3 842 7 845 3 4 123 7 265 7 l258 0 0 -44z
m-720 -156 c0 -150 -3 -190 -13 -190 -47 0 -464 -43 -581 -60 -1727 -253
-3276 -1028 -4501 -2255 -890 -891 -1538 -1943 -1932 -3135 -210 -636 -336
-1291 -384 -2000 -14 -209 -14 -767 0 -970 17 -243 42 -464 53 -477 8 -10 245
-13 1124 -13 l1114 0 32 -52 c18 -29 72 -113 120 -186 49 -73 88 -135 88 -137
0 -3 -607 -5 -1350 -5 -1517 0 -1375 8 -1358 -79 5 -25 18 -98 29 -161 43
-243 188 -794 265 -1008 20 -53 37 -108 39 -123 7 -53 81 -261 155 -434 5 -11
27 -64 49 -117 363 -868 956 -1757 1646 -2467 296 -304 607 -506 966 -625 239
-80 346 -97 631 -103 287 -6 432 8 643 62 422 108 756 304 1071 626 340 349
559 800 609 1252 l6 57 420 0 419 0 0 -45 0 -45 -364 0 c-279 0 -366 -3 -374
-12 -5 -7 -15 -44 -21 -83 -85 -511 -401 -1034 -836 -1387 -450 -364 -1041
-552 -1603 -510 -422 32 -833 169 -1167 391 -173 115 -267 194 -445 375 -1084
1107 -1842 2522 -2169 4050 -57 264 -62 290 -95 521 -65 444 -87 756 -87 1220
0 468 19 752 77 1170 209 1500 839 2937 1803 4109 350 427 781 855 1201 1195
1185 960 2571 1563 4095 1781 148 22 498 57 578 59 l47 1 0 -190z m1336 170
c2702 -251 5126 -1828 6462 -4205 594 -1058 947 -2234 1039 -3460 23 -316 23
-936 0 -1245 -23 -306 -41 -449 -93 -765 -100 -604 -257 -1153 -502 -1760
-229 -569 -517 -1099 -870 -1605 -396 -566 -894 -1123 -1211 -1355 -199 -146
-518 -302 -751 -368 -77 -22 -288 -64 -395 -79 -118 -16 -425 -16 -545 1 -522
71 -962 282 -1329 636 -259 249 -448 531 -551 819 l-35 98 -110 102 c-60 56
-132 121 -158 144 l-48 43 -249 -3 c-162 -2 -250 1 -250 7 0 6 -3 27 -6 47
l-7 38 326 0 326 0 118 -108 c89 -81 120 -116 126 -142 143 -552 536 -1041
1072 -1338 249 -138 538 -229 833 -262 95 -11 105 -11 123 6 14 12 19 29 18
53 -5 83 -1 98 33 110 25 9 38 8 67 -6 35 -17 36 -20 39 -78 5 -93 12 -97 156
-91 322 13 722 149 1036 353 193 126 363 278 602 540 648 710 1140 1478 1533
2397 49 113 69 166 166 436 178 495 326 1113 393 1640 121 955 92 1844 -90
2750 -370 1839 -1352 3484 -2802 4696 -1262 1054 -2848 1712 -4494 1865 -158
14 -158 15 -158 -87 0 -64 3 -75 22 -88 12 -9 38 -16 58 -16 56 0 460 -48 594
-70 1043 -175 1963 -511 2846 -1038 1196 -714 2203 -1750 2883 -2967 488 -874
804 -1819 947 -2835 77 -550 91 -1266 35 -1880 -73 -803 -291 -1648 -620
-2410 -100 -232 -285 -602 -379 -760 -18 -30 -63 -107 -100 -170 -272 -466
-664 -983 -1057 -1395 -139 -146 -216 -219 -309 -297 -200 -166 -519 -327
-778 -393 -95 -23 -104 -24 -119 -9 -15 14 -13 18 18 48 27 26 58 40 147 66
124 35 296 109 413 176 42 24 79 44 84 44 21 0 212 150 302 237 330 319 729
806 1020 1243 1051 1581 1499 3508 1257 5409 -201 1579 -855 3035 -1901 4233
-235 270 -603 627 -903 878 -1221 1020 -2768 1656 -4364 1795 -99 9 -183 18
-188 21 -9 6 -11 334 -2 358 8 20 15 20 280 -4z m-470 -877 l7 -783 -50 0
c-39 0 -52 4 -57 17 -4 9 -4 381 0 826 l7 809 43 -44 43 -43 7 -782z m-146
691 l0 -64 -90 0 c-89 0 -90 0 -90 25 0 21 -5 25 -30 25 -39 0 -41 27 -2 32
20 2 28 9 30 28 3 25 3 25 92 22 l90 -3 0 -65z m-290 1 c0 -11 -12 -15 -45
-15 -33 0 -45 4 -45 15 0 11 12 15 45 15 33 0 45 -4 45 -15z m290 -185 l0 -70
-90 0 c-89 0 -90 0 -90 25 0 21 -5 25 -30 25 -23 0 -30 4 -30 20 0 16 7 20 30
20 25 0 30 4 30 25 0 25 1 25 90 25 l90 0 0 -70z m-290 0 c0 -17 -7 -20 -45
-20 -38 0 -45 3 -45 20 0 17 7 20 45 20 38 0 45 -3 45 -20z m290 -190 l0 -70
-90 0 c-89 0 -90 0 -90 24 0 19 -6 25 -27 28 -17 2 -29 10 -31 21 -3 13 3 17
27 17 26 0 31 4 31 25 0 25 1 25 90 25 l90 0 0 -70z m-290 6 c0 -9 -15 -15
-45 -18 -38 -3 -45 0 -45 14 0 15 9 18 45 18 32 0 45 -4 45 -14z m-430 -560
c0 -625 6 -576 -66 -576 l-34 0 0 510 c0 429 -2 511 -14 516 -8 3 -81 -4 -163
-16 -587 -85 -1187 -279 -1718 -554 -453 -235 -841 -507 -1230 -863 -110 -100
-117 -104 -134 -89 -17 16 -24 11 -120 -90 -97 -101 -101 -107 -85 -125 16
-17 13 -22 -48 -91 -698 -790 -1151 -1742 -1322 -2778 -55 -333 -77 -701 -64
-1077 40 -1210 533 -2325 1533 -3467 205 -234 190 -213 170 -236 -17 -19 -15
-22 60 -107 43 -49 86 -96 96 -107 15 -17 18 -17 41 -2 l25 16 235 -237 c382
-386 529 -558 707 -823 514 -767 604 -1454 276 -2110 -98 -196 -215 -359 -375
-524 -321 -331 -703 -530 -1166 -607 -122 -21 -484 -18 -609 5 -433 78 -773
238 -1086 511 -212 185 -589 614 -856 975 -576 779 -1012 1666 -1272 2590 -48
171 -128 505 -137 571 l-6 46 438 6 c240 4 915 7 1500 7 961 0 1062 2 1068 16
7 19 12 11 -105 169 -98 133 -244 346 -335 491 l-51 81 -1022 5 c-592 3 -1025
9 -1030 14 -22 23 -36 343 -35 794 0 493 12 685 64 1043 217 1485 874 2876
1871 3960 l54 59 47 -27 47 -26 -89 -177 c-369 -738 -580 -1528 -631 -2361
-13 -208 -7 -680 11 -861 57 -592 214 -1181 456 -1713 29 -66 54 -122 54 -123
0 -2 -24 -4 -54 -4 l-54 0 -50 113 c-228 504 -385 1089 -448 1667 -21 198 -30
719 -15 940 36 539 137 1063 300 1557 39 117 68 219 65 227 -3 9 -30 23 -60
33 -51 16 -55 16 -73 -1 -25 -23 -238 -339 -328 -486 -333 -548 -587 -1115
-767 -1713 -159 -528 -249 -1014 -292 -1577 -29 -375 -17 -1185 18 -1227 8
-10 221 -13 1016 -15 l1005 -3 64 -105 c126 -206 301 -456 483 -690 l120 -155
-1551 -3 c-1097 -1 -1556 -5 -1565 -13 -17 -14 -15 -23 63 -327 100 -389 253
-838 400 -1172 104 -237 256 -545 353 -715 69 -122 111 -193 184 -310 125
-201 146 -233 252 -382 24 -35 42 -63 39 -63 -6 0 112 -160 129 -175 22 -18
116 -143 116 -153 0 -6 11 -20 26 -31 14 -11 25 -23 25 -28 -1 -4 59 -77 132
-161 72 -84 160 -188 195 -230 81 -99 238 -258 327 -330 154 -125 265 -199
278 -185 4 3 7 2 7 -3 0 -5 14 -18 31 -28 18 -11 29 -15 26 -10 -3 5 29 -7 71
-28 42 -20 80 -34 84 -32 5 3 8 0 8 -5 0 -6 7 -11 16 -11 8 0 36 -9 61 -21 25
-11 58 -23 72 -25 14 -3 46 -11 71 -19 241 -77 535 -103 815 -70 725 85 1374
621 1610 1329 99 298 105 650 15 969 -88 313 -251 629 -491 950 -144 192 -274
338 -619 692 -400 410 -648 685 -882 980 -601 757 -995 1539 -1167 2315 -139
626 -154 1299 -46 1969 218 1345 919 2562 1984 3446 643 534 1417 923 2235
1125 244 60 664 134 789 139 l27 1 0 -564z m1272 539 c246 -33 424 -67 636
-120 1558 -391 2881 -1441 3628 -2881 554 -1065 751 -2335 544 -3494 -47 -262
-147 -612 -250 -876 -33 -86 -44 -127 -38 -138 8 -14 72 -16 666 -16 l657 0
153 -46 152 -47 0 -64 c0 -34 -1 -63 -2 -63 -2 0 -73 22 -158 50 l-155 50
-747 0 c-412 0 -748 3 -748 6 0 3 20 51 45 108 442 1015 524 2151 239 3301
-292 1175 -965 2215 -1938 2993 -246 197 -600 428 -870 567 -67 35 -95 55 -92
65 2 8 5 21 7 28 3 9 -40 34 -121 72 -69 33 -130 59 -137 60 -6 0 -15 -9 -18
-21 -9 -27 -11 -26 -205 51 -359 141 -791 255 -1187 311 -124 18 -156 19 -168
9 -13 -11 -15 -78 -15 -516 l0 -504 -27 0 c-16 0 -38 3 -50 6 l-23 6 0 548 c0
302 3 555 6 564 8 20 0 21 216 -9z m-552 -170 l0 -65 -89 0 c-85 0 -90 1 -93
23 -2 16 -11 23 -30 25 -16 2 -28 9 -28 17 0 8 12 15 28 17 19 2 28 9 30 26 3
21 8 22 93 22 l89 0 0 -65z m700 4 c319 -50 738 -162 1040 -277 232 -89 232
-89 225 -113 -6 -17 9 -27 119 -79 69 -33 130 -60 135 -60 6 0 14 7 19 17 8
14 25 8 137 -52 1218 -644 2157 -1733 2615 -3034 264 -752 363 -1615 274
-2391 -78 -679 -303 -1329 -678 -1958 -55 -93 -63 -102 -86 -97 -23 4 -32 -6
-102 -112 -73 -109 -77 -118 -62 -134 15 -17 12 -25 -55 -118 -282 -395 -606
-765 -1237 -1412 -242 -248 -392 -426 -524 -619 -609 -898 -694 -1793 -237
-2488 85 -129 148 -207 265 -326 218 -221 443 -372 723 -484 144 -57 201 -75
334 -102 122 -25 131 -25 139 2 5 19 -9 38 -91 115 -97 92 -99 93 -208 129
-212 70 -405 175 -590 319 -108 84 -295 280 -377 396 -124 173 -224 402 -270
612 -19 88 -22 133 -22 327 0 206 2 236 27 350 71 336 215 672 424 990 162
246 287 393 648 760 497 507 835 895 1123 1287 169 230 399 598 496 791 l36
72 701 0 700 0 172 -61 c95 -34 176 -65 181 -70 5 -5 5 -32 0 -68 l-9 -59
-195 75 -195 75 -485 -7 c-267 -4 -488 -9 -492 -11 -3 -2 -40 -68 -81 -147
-355 -677 -844 -1303 -1700 -2174 -411 -419 -509 -531 -657 -752 -342 -510
-403 -1096 -165 -1598 202 -428 602 -729 1065 -801 l110 -17 0 -72 0 -73 -30
0 -30 0 0 -75 c0 -70 2 -76 24 -84 21 -9 36 -29 36 -52 0 -5 -13 -9 -30 -9
l-30 0 0 -80 c0 -51 4 -80 11 -80 24 0 48 -45 49 -90 l0 -46 -102 8 c-351 26
-773 196 -1086 438 -374 288 -666 718 -752 1103 -13 57 -16 59 -147 177 l-133
120 -329 0 -329 0 -7 40 c-4 21 -4 44 0 50 4 6 120 10 339 10 l332 0 111 113
110 112 6 78 c29 348 211 832 461 1225 184 288 324 455 741 882 321 328 504
527 707 767 126 149 130 152 152 138 22 -15 25 -13 105 89 92 119 100 133 77
142 -25 10 -19 26 35 98 73 97 255 372 334 506 422 715 645 1462 673 2251 21
589 -44 1141 -199 1685 -346 1220 -1122 2285 -2188 3003 -86 57 -155 109 -155
115 1 6 5 18 9 27 5 13 -12 28 -77 66 -132 79 -171 99 -175 88 -14 -40 -19
-38 -214 58 -497 244 -962 391 -1561 492 -14 2 -31 -2 -37 -9 -7 -9 -12 -155
-13 -447 l-3 -434 -25 3 c-14 1 -35 5 -47 8 l-23 4 0 496 0 495 48 -6 c26 -4
103 -15 172 -26z m-990 -4 c0 -11 -12 -15 -45 -15 -33 0 -45 4 -45 15 0 11 12
15 45 15 33 0 45 -4 45 -15z m290 -185 l0 -70 -90 0 c-89 0 -90 0 -90 25 0 21
-5 25 -31 25 -24 0 -30 4 -27 18 2 10 14 18 31 20 21 3 27 9 27 28 0 24 1 24
90 24 l90 0 0 -70z m-1008 -371 c2 -231 1 -422 -2 -424 -3 -2 -26 -6 -52 -10
l-48 -7 0 364 c0 245 -4 368 -11 375 -14 14 -107 -4 -355 -67 -502 -128 -964
-322 -1424 -597 -69 -42 -140 -87 -159 -101 l-34 -25 -16 22 -17 22 -104 -72
c-145 -99 -144 -98 -123 -121 9 -10 14 -20 12 -22 -2 -2 -56 -45 -119 -96
-222 -177 -492 -435 -681 -650 -255 -290 -521 -679 -701 -1027 -324 -624 -508
-1250 -572 -1943 -75 -805 38 -1542 346 -2264 137 -324 371 -734 592 -1041 32
-44 34 -51 21 -65 -8 -9 -15 -20 -15 -24 0 -11 171 -226 179 -226 4 0 13 6 19
12 10 10 18 6 40 -22 191 -245 481 -566 864 -957 414 -424 565 -600 746 -866
277 -409 440 -795 504 -1192 11 -71 25 -136 30 -143 8 -9 94 -12 368 -12 l358
0 6 -22 c3 -13 6 -33 6 -45 l0 -23 -421 -2 c-275 -2 -422 0 -424 7 -2 6 -8 65
-14 133 -46 511 -331 1090 -810 1647 -47 55 -205 222 -350 370 -217 222 -399
415 -610 647 -24 27 -24 28 -6 48 21 23 28 10 -89 148 -77 90 -80 92 -99 75
-19 -17 -20 -17 -58 27 -61 69 -217 275 -327 427 -784 1100 -1087 2212 -947
3483 116 1052 560 2067 1256 2875 117 135 349 377 422 438 44 36 50 39 64 24
14 -14 26 -7 124 80 98 85 108 97 98 115 -9 17 -8 24 9 37 328 259 620 445
977 621 335 166 620 275 965 370 156 43 501 118 552 119 l28 1 2 -421z m1888
381 c426 -84 851 -228 1269 -431 192 -94 203 -100 197 -123 -5 -22 4 -30 120
-96 116 -67 126 -71 138 -54 13 17 17 16 67 -16 864 -546 1599 -1394 2012
-2320 243 -544 384 -1079 449 -1700 20 -194 17 -826 -5 -1010 -106 -881 -406
-1627 -964 -2397 -67 -92 -76 -101 -93 -91 -21 13 -10 25 -132 -131 -53 -68
-64 -87 -53 -94 8 -4 15 -13 15 -19 0 -14 -201 -252 -382 -453 -80 -89 -285
-304 -457 -479 -321 -328 -466 -494 -608 -692 -324 -453 -528 -935 -586 -1387
l-14 -109 -99 -99 -99 -99 -325 2 -325 3 0 45 0 45 271 3 270 2 110 113 111
112 12 85 c57 389 278 901 564 1305 167 238 277 364 617 710 135 138 301 311
369 385 68 74 132 144 142 154 16 18 21 18 44 6 14 -7 26 -11 28 -9 1 2 43 50
91 107 86 100 88 103 71 122 -16 18 -17 22 -3 38 579 676 971 1369 1173 2072
114 396 163 729 172 1165 10 486 -38 916 -153 1379 -275 1098 -895 2070 -1784
2797 -69 56 -127 103 -129 105 -2 2 3 14 12 27 16 24 15 25 -105 112 -117 85
-120 86 -135 66 -19 -28 -25 -27 -91 17 -318 215 -775 436 -1192 575 -292 97
-697 194 -732 176 -17 -9 -18 -37 -18 -376 l0 -365 -31 6 c-17 3 -40 6 -50 6
-18 0 -19 16 -19 426 l0 427 53 -6 c28 -4 122 -20 207 -37z m-1170 -16 c0 -10
-13 -14 -45 -14 -36 0 -45 3 -45 18 0 14 7 17 45 14 30 -3 45 -9 45 -18z
m1383 -179 c464 -116 980 -330 1372 -568 194 -118 235 -149 229 -171 -4 -18
12 -34 110 -104 101 -72 118 -81 135 -71 20 13 31 7 161 -100 890 -733 1516
-1733 1770 -2831 207 -891 183 -1766 -70 -2565 -188 -597 -523 -1192 -1004
-1784 -157 -193 -140 -176 -155 -157 -17 21 -24 16 -133 -112 -75 -87 -79 -94
-64 -111 15 -16 7 -27 -122 -167 -76 -82 -264 -277 -418 -435 -153 -157 -326
-342 -383 -412 -374 -453 -626 -932 -746 -1418 -18 -74 -36 -161 -40 -193 -7
-57 -10 -61 -103 -157 l-94 -99 -264 0 -264 0 0 45 0 45 198 0 198 0 120 123
121 122 18 90 c10 50 42 165 71 256 112 345 278 669 512 999 154 216 261 339
554 639 215 220 219 223 239 205 19 -17 20 -17 42 7 13 13 59 61 102 106 77
82 78 83 60 103 -18 20 -18 21 16 58 973 1041 1474 1987 1609 3037 72 559 36
1181 -100 1760 -138 585 -375 1133 -705 1630 -191 288 -364 501 -619 762 -168
173 -169 173 -150 194 19 21 19 22 -23 58 -22 20 -72 64 -110 98 l-70 62 -21
-21 -21 -22 -38 30 c-583 467 -1247 799 -1951 975 -89 23 -169 38 -177 35 -13
-5 -15 -49 -15 -302 l0 -296 -47 7 c-27 4 -51 9 -55 12 -9 5 -11 657 -2 689
l6 22 109 -24 c60 -13 155 -35 212 -49z m-2243 -289 l0 -354 -36 -6 c-19 -4
-42 -10 -50 -13 -12 -4 -14 38 -14 290 0 240 -3 297 -14 306 -30 25 -474 -103
-786 -226 -91 -35 -248 -105 -350 -154 -179 -87 -185 -89 -200 -70 -15 19 -19
17 -142 -51 -121 -68 -126 -72 -115 -95 5 -13 8 -25 6 -27 -2 -2 -51 -34 -109
-71 -570 -370 -1089 -880 -1467 -1445 -500 -746 -794 -1603 -854 -2494 -13
-197 -7 -634 11 -801 65 -606 267 -1221 584 -1775 75 -131 76 -135 57 -150
-20 -15 -18 -18 54 -135 71 -115 81 -125 115 -111 11 5 44 -34 120 -140 276
-386 597 -756 1120 -1289 298 -304 369 -382 518 -568 235 -294 419 -598 550
-907 60 -143 128 -361 153 -490 12 -63 25 -122 29 -130 6 -13 52 -15 302 -18
l296 -2 6 -31 c15 -75 47 -69 -344 -69 l-349 0 -6 38 c-80 491 -225 844 -536
1302 -169 250 -333 439 -740 855 -390 400 -703 747 -853 948 -28 36 -28 38
-11 57 18 20 17 22 -30 83 -27 34 -67 85 -89 114 -38 49 -41 51 -59 35 -23
-20 -18 -26 -151 173 -356 532 -564 979 -719 1545 -47 169 -101 479 -122 694
-17 185 -20 637 -5 832 87 1098 519 2132 1245 2980 203 237 490 512 726 697
48 37 90 67 94 67 4 0 13 -7 19 -15 9 -12 29 -2 126 65 63 44 117 85 118 91 2
5 -1 16 -8 24 -10 12 3 24 75 71 472 304 1023 538 1585 673 204 49 200 48 228
50 l22 1 0 -354z m1150 308 c0 -43 -5 -52 -70 -124 l-70 -78 0 -176 0 -176
-50 0 -50 0 0 275 0 275 30 0 c25 0 30 4 30 25 0 25 1 25 90 25 l90 0 0 -46z
m-288 -278 l3 -274 -48 -4 c-27 -2 -51 -1 -53 1 -6 7 -5 518 2 535 4 11 19 16
50 16 l43 0 3 -274z m288 -61 l0 -215 -50 0 -50 0 0 167 0 167 47 48 c26 26
49 48 50 48 2 0 3 -97 3 -215z m1100 169 c643 -165 1318 -502 1842 -921 57
-45 67 -58 62 -77 -4 -18 7 -33 63 -82 153 -136 143 -129 165 -115 19 12 32 2
167 -136 902 -917 1409 -2080 1461 -3353 30 -762 -109 -1451 -430 -2116 -243
-506 -570 -973 -1078 -1542 -141 -158 -156 -172 -171 -158 -15 14 -26 6 -121
-89 -99 -100 -103 -105 -87 -123 16 -18 7 -29 -223 -266 -343 -352 -505 -553
-698 -866 -96 -155 -230 -423 -296 -591 -47 -121 -129 -393 -141 -469 -6 -40
-18 -56 -113 -152 l-107 -108 -188 0 -188 0 3 48 3 47 130 3 131 3 121 122
121 122 36 128 c152 541 497 1135 925 1590 58 62 65 66 81 52 9 -8 19 -15 22
-15 3 0 49 47 102 105 84 92 95 107 84 124 -10 17 10 41 179 217 1100 1146
1608 2039 1762 3106 56 379 55 873 0 1283 -124 925 -492 1769 -1086 2493 -51
62 -93 116 -93 121 0 5 7 11 15 15 8 3 15 10 15 16 0 5 -43 57 -97 115 -94
103 -97 105 -120 90 -23 -15 -26 -13 -166 116 -582 539 -1256 923 -2000 1138
-119 34 -151 40 -162 31 -12 -10 -15 -51 -15 -231 0 -121 -3 -219 -6 -219 -3
0 -25 5 -50 11 l-44 11 0 284 0 284 28 -6 c15 -3 88 -21 162 -40z m-2390 -243
l0 -280 -47 -13 -48 -14 -3 223 c-2 199 -4 223 -20 232 -21 11 -284 -65 -492
-142 -144 -54 -145 -54 -161 -34 -16 20 -18 20 -148 -39 -125 -55 -131 -60
-126 -84 5 -23 -3 -29 -122 -90 -313 -160 -631 -372 -918 -611 -135 -113 -413
-386 -546 -537 -514 -585 -896 -1314 -1083 -2072 -251 -1016 -174 -2022 221
-2907 l47 -106 -23 -18 -23 -19 70 -123 c62 -105 75 -122 95 -119 19 2 30 -10
67 -75 121 -214 305 -485 486 -718 279 -358 497 -600 1064 -1180 299 -306 511
-566 687 -844 206 -324 350 -646 429 -961 19 -74 40 -138 47 -142 7 -4 110 -8
229 -8 l218 0 5 -27 c4 -16 8 -36 10 -45 5 -26 -31 -29 -309 -26 l-250 3 -22
105 c-79 380 -248 760 -506 1141 -186 276 -349 468 -713 839 -508 518 -816
869 -1081 1230 -131 177 -157 220 -139 226 8 3 15 10 15 16 0 7 -133 232 -146
247 -2 2 -11 -2 -19 -9 -13 -11 -18 -11 -30 1 -22 22 -98 158 -194 349 -313
618 -463 1209 -478 1885 -18 802 148 1561 501 2290 263 543 584 987 1027 1420
256 250 541 478 806 645 79 50 84 52 102 36 18 -17 25 -14 143 52 67 38 122
74 121 78 -1 5 -4 17 -8 26 -5 14 14 28 105 73 269 135 620 270 920 353 177
49 178 49 213 51 l27 1 0 -279z m2723 -9 c645 -228 1227 -581 1727 -1047 126
-118 136 -131 120 -150 -10 -12 5 -33 85 -120 53 -58 101 -105 105 -105 5 0
12 5 15 10 11 18 19 11 86 -67 259 -307 485 -655 665 -1028 274 -569 426
-1148 475 -1810 14 -200 6 -621 -16 -805 -117 -987 -522 -1813 -1355 -2765
-133 -153 -440 -482 -544 -584 -65 -64 -66 -65 -86 -46 -18 16 -22 17 -34 4
-8 -8 -53 -57 -100 -108 -79 -88 -84 -96 -70 -112 14 -16 10 -23 -55 -94 -408
-439 -733 -984 -895 -1497 -25 -79 -50 -161 -55 -183 -9 -33 -33 -63 -124
-153 l-114 -112 -111 0 c-61 0 -113 3 -115 8 -3 4 3 55 13 113 83 487 297
1002 615 1484 203 307 375 511 768 913 394 402 640 674 849 937 691 873 999
1645 1025 2575 20 732 -151 1489 -484 2142 -430 844 -1109 1528 -1948 1964
-144 75 -323 155 -455 204 l-75 28 -3 67 c-3 62 -1 67 15 60 10 -4 54 -20 98
-37 638 -237 1272 -666 1748 -1183 309 -335 588 -744 773 -1130 230 -482 360
-936 431 -1500 22 -179 25 -791 5 -955 -122 -965 -508 -1736 -1341 -2675 -156
-175 -196 -218 -571 -605 -399 -412 -539 -580 -744 -892 -168 -256 -315 -544
-415 -810 -65 -175 -136 -420 -128 -442 6 -14 19 -16 94 -14 l87 3 13 55 c26
103 104 332 160 463 98 232 199 421 350 651 195 297 341 472 708 846 611 624
968 1044 1250 1475 417 635 637 1227 722 1943 24 208 24 694 0 922 -67 612
-221 1148 -481 1670 -249 498 -534 889 -942 1291 -529 520 -1137 894 -1836
1130 -132 45 -159 51 -172 40 -13 -11 -16 -38 -16 -157 0 -79 -3 -144 -6 -144
-3 0 -25 5 -50 11 l-44 11 0 208 c0 113 2 209 5 212 7 7 228 -57 378 -110z
m-2873 -101 l0 -209 -45 -14 c-24 -8 -47 -13 -50 -10 -3 3 -5 69 -5 147 0 108
-3 145 -14 154 -10 8 -47 -1 -157 -38 -585 -200 -1093 -484 -1570 -882 -155
-129 -464 -437 -590 -589 -658 -790 -1034 -1703 -1119 -2720 -13 -161 -13
-576 0 -727 49 -543 188 -1023 439 -1521 314 -621 732 -1163 1496 -1942 296
-302 417 -434 555 -605 356 -443 606 -898 729 -1330 l37 -130 159 -5 159 -5 7
-25 c4 -14 7 -35 8 -48 l1 -22 -207 2 -207 3 -27 100 c-98 378 -270 741 -522
1108 -181 262 -332 441 -627 742 -437 446 -645 672 -880 955 -233 280 -472
617 -624 880 -65 112 -66 115 -46 129 11 7 20 18 20 24 0 5 -30 63 -67 128
-61 106 -70 119 -91 114 -20 -5 -26 3 -53 62 -339 751 -447 1546 -328 2418 96
705 366 1415 767 2019 190 286 374 509 631 766 311 311 592 531 961 752 167
100 392 215 397 203 13 -36 19 -36 99 -2 43 19 103 46 132 61 47 24 53 30 48
50 -5 21 1 26 52 46 182 70 481 168 520 170 9 0 12 -48 12 -209z m3015 -106
c175 -68 497 -227 675 -335 1269 -763 2102 -2034 2290 -3493 110 -860 -16
-1662 -380 -2412 -299 -614 -722 -1163 -1556 -2015 -435 -446 -625 -683 -849
-1065 -71 -121 -209 -404 -260 -535 -39 -98 -106 -303 -125 -377 l-11 -43 -49
0 c-29 0 -50 5 -50 11 0 24 42 172 80 285 139 403 350 792 633 1168 136 180
250 310 476 541 659 673 979 1045 1276 1484 403 595 639 1204 722 1861 28 224
25 808 -5 1054 -154 1257 -784 2362 -1799 3153 -224 174 -508 350 -788 487
-177 87 -477 208 -520 210 l-30 1 -3 -77 c-2 -43 -6 -78 -11 -78 -4 0 -27 7
-52 15 l-44 15 3 139 3 139 127 -43 c70 -23 181 -64 247 -90z m-3155 -10 l0
-135 -36 -15 c-61 -25 -64 -23 -64 54 0 100 -4 101 -147 48 -980 -368 -1822
-1071 -2367 -1976 -436 -725 -666 -1548 -666 -2386 0 -1103 420 -2074 1359
-3140 171 -194 329 -362 616 -655 295 -301 422 -444 579 -650 173 -227 341
-492 451 -709 57 -115 150 -339 190 -461 21 -63 42 -121 48 -127 6 -9 37 -13
88 -13 l78 0 10 -37 c19 -65 23 -63 -124 -63 l-134 0 -11 43 c-24 91 -105 318
-157 437 -169 389 -421 776 -750 1150 -61 69 -246 264 -413 435 -563 576 -893
968 -1175 1395 -423 640 -648 1237 -737 1950 -21 166 -17 767 5 950 84 681
280 1279 603 1842 530 924 1372 1661 2354 2060 97 40 371 137 388 137 9 1 12
-32 12 -134z m-146 -126 l-2 -61 -123 -49 c-338 -135 -733 -357 -1034 -583
-235 -175 -564 -485 -736 -691 -665 -798 -1023 -1708 -1068 -2720 -47 -1052
287 -1956 1088 -2945 238 -294 410 -481 951 -1035 580 -594 965 -1197 1160
-1817 l28 -87 -55 -7 c-67 -8 -73 -3 -103 91 -96 306 -302 709 -523 1025 -200
285 -357 468 -712 830 -412 421 -647 679 -877 967 -885 1104 -1206 2141 -1047
3386 90 708 361 1411 776 2015 169 245 350 458 589 692 355 347 700 594 1144
819 209 106 493 228 535 231 6 0 9 -26 9 -61z m7785 -129 c79 0 98 -21 99
-107 0 -35 -1 -63 -2 -63 -1 0 -51 50 -111 112 -61 61 -95 99 -77 85 28 -22
44 -27 91 -27z m-12780 -377 c-25 -27 -101 -112 -168 -190 -68 -79 -126 -143
-129 -143 -3 0 6 12 20 28 34 37 63 128 47 148 -21 25 31 68 99 82 50 10 65
19 112 67 30 30 57 55 59 55 3 0 -15 -21 -40 -47z m13143 15 c49 -3 60 -20 64
-107 l3 -66 -43 47 c-24 25 -62 69 -85 97 l-42 50 32 -9 c17 -5 49 -10 71 -12z
m378 -218 c0 -6 11 -15 24 -20 27 -10 80 -73 120 -143 33 -58 29 -70 -9 -26
-24 30 -29 31 -48 19 -19 -12 -24 -9 -59 31 -43 50 -45 57 -21 74 16 12 16 15
2 32 -24 28 -31 43 -20 43 6 0 11 -5 11 -10z m-14049 -89 c-15 -21 -21 -45
-21 -83 0 -41 -5 -60 -24 -83 -22 -26 -27 -28 -45 -18 -17 11 -23 9 -41 -14
-30 -38 -46 -18 -26 32 13 30 159 195 173 195 3 0 -5 -13 -16 -29z m14036 -85
c4 -4 8 -41 8 -82 0 -52 -3 -70 -10 -61 -5 7 -37 46 -69 87 -33 41 -63 80 -68
86 -9 13 126 -16 139 -30z m-13832 2 c-14 -18 -65 -83 -113 -145 -69 -88 -89
-108 -96 -96 -5 10 -4 23 3 36 10 15 9 22 -4 37 -16 17 -15 20 5 48 18 24 33
32 73 37 45 7 57 14 102 61 57 61 68 69 30 22z m14207 -278 c40 -43 78 -108
78 -136 0 -13 -4 -11 -19 7 -17 21 -22 22 -40 11 -19 -11 -24 -8 -51 29 -32
45 -37 68 -18 87 8 8 8 15 -2 27 -10 12 -10 15 0 15 7 0 30 -18 52 -40z
m-14730 -100 c11 -72 -24 -140 -61 -121 -14 8 -23 5 -39 -14 -34 -38 -43 -30
-24 20 20 51 90 145 108 145 7 0 14 -13 16 -30z m14625 -7 l33 -13 -6 -68 c-4
-37 -7 -68 -9 -70 -2 -2 -79 104 -108 151 l-17 28 37 -7 c21 -4 53 -13 70 -21z
m-1653 -205 c629 -710 1101 -1504 1430 -2404 331 -907 487 -1954 436 -2919
-38 -707 -157 -1344 -372 -1992 l-71 -213 -171 0 c-94 0 -193 -3 -221 -6 -49
-5 -51 -4 -97 41 l-47 46 43 117 c413 1109 522 2424 301 3632 -37 202 -60 309
-70 318 -12 12 -114 18 -128 7 -9 -6 -18 -49 -26 -125 -16 -151 -48 -361 -72
-479 -23 -112 -19 -121 55 -121 28 -1 98 -11 156 -23 l105 -22 8 -59 c5 -32 7
-60 5 -61 -2 -2 -57 8 -123 21 -96 20 -142 25 -237 22 -81 -2 -118 0 -118 8 0
6 14 75 30 153 89 421 124 772 124 1264 l0 348 25 -3 c20 -3 29 -18 62 -108
296 -806 448 -1789 410 -2656 -30 -698 -124 -1238 -328 -1892 l-67 -213 59
-59 59 -60 92 0 c61 0 95 4 102 13 16 19 127 380 183 591 237 899 298 1872
179 2831 -127 1013 -482 2022 -1023 2905 -132 215 -326 498 -352 513 -21 11
-109 -27 -113 -50 -2 -10 25 -100 58 -199 333 -979 414 -2088 225 -3065 -28
-143 -73 -331 -107 -442 -16 -54 -18 -70 -8 -82 11 -13 62 -15 329 -15 316 0
316 0 435 -30 65 -16 120 -31 121 -32 2 -2 5 -30 6 -63 3 -71 13 -69 -147 -24
l-104 29 -401 0 c-317 0 -400 3 -396 13 19 49 112 389 137 495 94 416 131 766
131 1237 0 567 -64 1053 -207 1589 -106 396 -310 921 -480 1232 -24 44 -44 85
-44 91 0 8 67 52 82 53 3 0 67 -69 142 -152z m-12862 36 c-60 -87 -67 -94 -76
-75 -6 15 -6 25 2 33 9 9 8 16 -4 29 -20 22 -11 54 20 75 19 12 64 25 118 33
4 1 -23 -42 -60 -95z m14933 -198 c28 -56 35 -93 11 -60 -13 16 -18 17 -35 7
-18 -11 -23 -9 -46 24 -25 38 -34 93 -14 93 6 0 8 9 4 21 -13 39 52 -30 80
-85z m-132 -58 c10 -12 15 -28 12 -37 -11 -26 -17 -55 -17 -74 1 -16 -2 -15
-17 5 -23 29 -91 141 -91 150 0 13 96 -23 113 -44z m-15193 13 c29 -55 -4
-131 -49 -116 -14 4 -23 1 -27 -9 -8 -21 -34 -21 -34 -1 0 35 69 145 91 145 5
0 13 -9 19 -19z m178 -79 c-1 -4 -25 -44 -53 -89 -47 -79 -72 -97 -62 -47 2
13 -2 29 -9 35 -35 29 -4 72 68 94 51 16 61 17 56 7z m15366 -245 c42 -55 74
-144 42 -118 -7 6 -24 10 -36 9 -17 -2 -30 7 -47 31 -27 39 -29 64 -8 84 8 8
11 17 8 21 -4 3 -1 6 5 6 6 0 22 -15 36 -33z m-144 -82 c43 -22 53 -47 39 -95
-7 -22 -16 -37 -20 -34 -11 7 -79 122 -79 135 0 14 27 11 60 -6z m-15650 -24
c25 -48 -6 -130 -45 -115 -8 4 -17 -1 -21 -10 -3 -9 -12 -16 -20 -16 -29 0
-11 71 32 127 29 38 39 41 54 14z m13931 -138 c317 -455 594 -973 796 -1488
285 -726 446 -1466 494 -2259 15 -250 6 -856 -15 -1096 -45 -497 -148 -1024
-295 -1500 -33 -107 -67 -212 -76 -232 l-15 -38 -68 0 c-67 0 -68 1 -111 44
l-43 44 55 168 c162 495 266 1020 319 1604 17 195 18 946 0 1135 -52 567 -140
1027 -291 1527 -61 203 -150 450 -165 460 -20 14 -106 9 -112 -6 -3 -7 -6
-202 -8 -432 -2 -232 -8 -470 -15 -534 -21 -198 -61 -458 -98 -640 -20 -96
-37 -191 -37 -210 l-1 -35 175 -6 c140 -5 193 -11 265 -30 l90 -24 5 -62 c4
-53 3 -62 -10 -59 -8 3 -64 16 -123 30 -104 25 -122 26 -406 26 l-297 0 42
168 c277 1094 221 2300 -158 3416 -53 153 -53 165 -8 166 9 0 58 -61 111 -137z
m-13761 57 c0 -17 -72 -150 -81 -150 -8 0 -10 5 -13 36 -1 6 -7 19 -15 28 -11
13 -11 22 -1 46 7 17 14 29 17 27 2 -3 20 2 41 9 45 16 52 17 52 4z m15880
-294 c21 -45 29 -118 9 -83 -8 13 -18 17 -35 13 -17 -5 -26 -1 -34 13 -26 49
-28 68 -13 100 15 30 17 31 34 15 10 -9 28 -35 39 -58z m-152 -50 c20 -19 23
-62 6 -77 -7 -6 -11 -15 -8 -20 3 -5 0 -9 -5 -9 -9 0 -71 109 -71 124 0 11 64
-4 78 -18z m-16120 -37 c16 -62 -1 -95 -44 -90 -7 1 -14 -5 -18 -14 -9 -24
-36 -18 -36 8 1 44 54 137 79 137 5 0 13 -19 19 -41z m162 -59 c17 0 -42 -118
-61 -123 -12 -3 -19 0 -19 9 0 8 -7 25 -15 38 -9 13 -13 30 -10 38 7 19 65 48
83 42 8 -2 17 -4 22 -4z m16309 -295 c22 -46 31 -128 10 -92 -5 9 -20 17 -33
17 -13 0 -30 7 -37 16 -30 36 -6 140 26 114 8 -6 23 -31 34 -55z m-181 -36
c50 -17 60 -82 18 -111 -12 -8 -68 101 -59 115 5 9 4 9 41 -4z m-16488 -70 c9
-33 8 -45 -5 -65 -9 -14 -22 -23 -30 -22 -8 2 -21 -6 -29 -17 -11 -15 -18 -17
-26 -9 -25 25 42 176 71 159 4 -3 13 -24 19 -46z m155 -49 c9 -15 -24 -107
-40 -114 -10 -3 -20 5 -30 24 -22 43 -19 58 18 80 37 23 43 24 52 10z m16685
-289 c24 -49 37 -121 21 -121 -6 0 -11 7 -11 15 0 11 -8 15 -27 13 -23 -3 -29
3 -41 34 -12 31 -12 43 -2 68 17 41 36 38 60 -9z m-171 -56 c39 -20 45 -41 19
-76 -25 -34 -31 -29 -54 48 -14 47 -9 51 35 28z m-16851 -50 c25 -54 10 -105
-30 -105 -10 0 -18 -7 -18 -15 0 -9 -9 -15 -21 -15 -19 0 -21 4 -14 38 10 55
42 122 58 122 8 0 19 -11 25 -25z m146 -71 c21 -8 21 -48 0 -68 -18 -19 -20
-19 -45 -6 -26 14 -24 45 3 64 26 19 22 18 42 10z m17029 -290 c23 -47 34
-124 18 -124 -6 0 -11 7 -11 15 0 10 -10 15 -30 15 -16 0 -30 1 -30 3 0 1 -4
16 -9 33 -10 35 10 94 32 94 7 0 21 -16 30 -36z m-143 -88 c0 -24 -34 -63 -43
-49 -10 16 -25 82 -20 87 3 2 18 0 34 -6 20 -7 29 -17 29 -32z m-17176 -40
c15 -30 16 -43 7 -62 -6 -13 -16 -24 -23 -24 -6 0 -22 -10 -35 -21 -20 -20
-23 -20 -29 -5 -14 37 26 161 50 153 6 -2 19 -20 30 -41z m159 -58 c6 -19 -12
-66 -29 -72 -15 -6 -54 26 -54 43 0 32 73 56 83 29z m17291 -298 c9 -22 16
-59 16 -83 -1 -36 -2 -40 -13 -25 -7 9 -24 18 -37 20 -34 5 -47 50 -26 94 21
45 40 43 60 -6z m-154 -55 c16 -19 -2 -65 -24 -65 -18 0 -36 30 -36 59 0 26
41 29 60 6z m-17419 -66 c17 -34 19 -47 10 -65 -6 -13 -16 -24 -22 -24 -6 0
-19 -10 -28 -22 -11 -13 -23 -18 -31 -13 -25 16 11 165 40 165 5 0 19 -19 31
-41z m159 -73 c0 -42 -21 -62 -48 -47 -44 24 -27 81 25 81 20 0 23 -5 23 -34z
m17516 -287 c15 -40 18 -115 5 -123 -5 -3 -11 4 -14 15 -4 14 -11 20 -21 16
-19 -7 -46 28 -46 59 0 25 38 76 53 71 6 -2 16 -19 23 -38z m-165 -48 c26 -21
21 -43 -14 -65 -21 -14 -28 -6 -34 43 -6 47 9 54 48 22z m-1975 -201 c36 -181
87 -500 80 -507 -2 -3 -39 2 -81 11 -43 9 -104 16 -137 16 -57 0 -60 1 -55 23
13 50 57 330 72 452 22 184 19 174 57 166 l33 -7 31 -154z m-15636 133 c27
-35 24 -84 -7 -98 -13 -5 -23 -15 -23 -22 0 -7 -10 -13 -21 -13 -20 0 -21 4
-16 59 5 59 20 101 37 101 5 0 18 -12 30 -27z m168 -57 c11 -55 -27 -85 -63
-50 -21 22 -15 46 15 61 30 15 44 12 48 -11z m17681 -307 c13 -39 15 -126 2
-134 -5 -3 -12 3 -16 14 -3 11 -16 21 -28 23 -29 4 -36 65 -11 102 22 35 40
33 53 -5z m-168 -48 c26 -21 21 -43 -14 -65 -21 -13 -25 -9 -33 42 -8 49 7 56
47 23z m-17743 -91 c12 -18 22 -37 22 -41 0 -5 -18 -28 -40 -51 l-39 -42 -11
28 c-17 46 7 152 33 143 7 -2 22 -18 35 -37z m162 -55 c0 -39 -21 -55 -49 -38
-36 23 -19 73 25 73 21 0 24 -5 24 -35z m17805 -331 c10 -70 -13 -141 -28 -84
-3 12 -14 20 -25 20 -40 0 -43 56 -6 100 33 38 49 28 59 -36z m-191 5 c14 -7
28 -19 31 -27 7 -19 -22 -52 -47 -52 -15 0 -18 8 -18 45 0 50 -1 49 34 34z
m-17826 -97 c19 -26 26 -45 23 -68 -2 -19 -59 -76 -70 -69 -12 7 -15 122 -5
149 9 24 30 19 52 -12z m175 -43 c7 -27 -9 -69 -25 -69 -22 1 -48 26 -48 48 0
39 64 58 73 21z m17861 -346 c9 -46 -3 -114 -22 -121 -6 -2 -12 5 -12 15 0 10
-10 23 -22 28 -32 14 -35 57 -7 95 31 41 52 35 63 -17z m-176 -9 c27 -19 28
-28 2 -54 -34 -34 -50 -26 -50 25 0 49 10 56 48 29z m-17864 -108 c20 -31 21
-75 1 -82 -8 -3 -17 -14 -20 -25 -4 -10 -15 -19 -25 -19 -15 0 -20 10 -25 44
-6 39 0 98 12 119 7 11 38 -9 57 -37z m161 -42 c0 -32 -4 -40 -21 -42 -24 -3
-54 21 -54 43 0 15 49 46 65 41 6 -1 10 -20 10 -42z m15568 -17 l157 -52 0
-62 c0 -36 -4 -63 -10 -63 -6 0 -86 27 -178 60 l-168 60 -705 0 c-387 0 -709
-4 -714 -8 -6 -4 -46 -72 -90 -152 -348 -641 -789 -1202 -1580 -2009 -384
-393 -475 -500 -655 -773 -235 -355 -391 -745 -445 -1107 -19 -123 -21 -370
-5 -481 53 -372 210 -683 490 -974 215 -223 504 -406 785 -496 89 -29 106 -39
157 -88 32 -31 56 -57 54 -59 -9 -9 -231 52 -334 92 -282 110 -515 264 -729
482 -325 330 -496 695 -534 1138 -44 520 180 1166 602 1731 127 171 206 260
478 539 565 578 867 922 1165 1328 106 144 109 147 131 133 22 -15 25 -12 104
107 l81 122 -23 17 c-20 16 -21 19 -8 40 59 93 181 308 227 401 31 62 61 118
67 126 10 11 132 12 767 7 l755 -7 158 -52z m-101 -323 c79 -31 167 -65 197
-76 l53 -20 -7 -62 c-3 -33 -8 -63 -11 -65 -2 -2 -98 35 -213 83 l-210 86
-411 0 c-250 0 -419 -4 -430 -10 -10 -5 -40 -52 -68 -103 -337 -631 -849
-1293 -1577 -2037 -370 -378 -466 -481 -559 -596 -246 -307 -407 -618 -467
-908 -28 -131 -30 -341 -5 -469 98 -509 469 -909 961 -1038 102 -27 144 -32
277 -36 330 -11 598 66 872 250 97 65 346 300 346 326 0 9 -100 116 -223 239
l-222 222 -153 0 c-166 0 -165 -1 -133 58 l18 34 157 -1 158 -2 268 -272 c250
-254 267 -273 254 -292 -37 -52 -279 -285 -359 -345 -174 -131 -365 -220 -589
-276 -141 -36 -433 -45 -587 -19 -551 91 -987 496 -1124 1044 -114 459 3 945
336 1389 119 158 237 288 581 639 844 861 1314 1458 1673 2123 43 80 84 155
92 168 l13 22 475 0 474 0 143 -56z m2402 40 c10 -25 7 -114 -4 -135 -14 -25
-30 -24 -30 1 0 13 -7 20 -19 20 -41 0 -37 55 7 103 30 31 37 33 46 11z m-173
-34 c38 -21 13 -70 -35 -70 -12 0 -16 10 -16 40 0 43 13 50 51 30z m-17859
-107 c20 -19 28 -37 28 -60 0 -18 -5 -33 -10 -33 -6 0 -15 -11 -20 -25 -21
-54 -51 -18 -52 63 -1 56 5 82 20 82 3 0 19 -12 34 -27z m176 -51 c3 -33 0
-42 -13 -42 -49 0 -76 57 -37 79 32 19 47 8 50 -37z m15341 -168 c69 -31 169
-76 221 -99 l95 -44 -2 -61 c-1 -34 -4 -64 -6 -66 -2 -3 -107 43 -233 101
l-228 105 -230 -2 -230 -3 -99 -170 c-274 -471 -626 -944 -1069 -1440 -174
-195 -286 -314 -629 -665 -163 -168 -334 -348 -379 -400 -207 -242 -343 -504
-380 -732 -20 -122 -9 -304 25 -408 98 -304 309 -509 610 -592 118 -32 343
-32 470 0 115 30 289 115 384 187 l73 57 31 -31 31 -30 -24 -26 c-35 -37 -155
-117 -237 -159 -259 -130 -564 -154 -824 -65 -294 100 -530 352 -620 660 -31
107 -38 323 -14 439 51 250 188 503 429 792 57 68 234 257 393 419 321 328
473 490 674 719 421 480 777 974 1024 1420 31 58 64 115 71 128 14 22 15 22
281 22 l266 0 126 -56z m2489 -169 c3 -46 -18 -122 -33 -117 -6 2 -9 10 -7 18
2 8 -9 19 -23 24 -34 13 -34 55 2 92 37 39 57 33 61 -17z m-180 9 c36 -25 26
-53 -25 -68 -22 -7 -23 -4 -23 38 0 50 10 57 48 30z m-17776 -129 c25 -28 22
-65 -7 -100 -23 -28 -26 -29 -39 -12 -19 25 -29 112 -16 138 12 22 27 16 62
-26z m168 -31 c0 -29 -4 -34 -23 -34 -47 0 -63 47 -25 74 29 20 48 4 48 -40z
m17728 -340 c5 -70 -36 -157 -46 -95 -2 10 -12 21 -23 24 -30 8 -24 53 11 89
38 37 54 32 58 -18z m-180 20 c29 -20 28 -40 -3 -60 -37 -24 -58 -12 -50 28
12 54 17 57 53 32z m-17663 -125 c20 -18 35 -40 35 -53 0 -29 -38 -88 -53 -83
-32 10 -52 167 -21 167 2 0 19 -14 39 -31z m181 -14 c8 -34 -1 -55 -25 -55
-20 0 -51 24 -51 40 0 15 31 40 51 40 12 0 21 -9 25 -25z m17395 -335 c29 -16
25 -58 -7 -70 -38 -15 -44 -13 -44 19 0 57 13 71 51 51z m183 -5 c7 -20 -11
-114 -25 -132 -16 -18 -29 -16 -29 5 0 9 -9 23 -20 30 -29 18 -25 50 11 83 35
32 54 37 63 14z m-17668 -131 c39 -30 44 -61 18 -112 -17 -35 -26 -39 -43 -18
-16 19 -36 119 -28 139 8 22 12 22 53 -9z m174 7 c5 -11 10 -32 10 -46 0 -23
-4 -26 -26 -23 -15 2 -33 13 -41 25 -13 19 -12 24 6 42 26 26 37 26 51 2z
m17202 -348 c25 -23 23 -51 -6 -65 -37 -16 -60 -4 -51 30 7 27 23 52 33 52 3
0 14 -7 24 -17z m178 -33 c0 -22 -7 -58 -16 -80 -17 -41 -44 -55 -44 -21 0 10
-7 21 -15 25 -27 10 -18 59 17 88 46 38 58 36 58 -12z m-17266 -86 c9 -8 16
-29 16 -45 0 -23 -4 -29 -22 -29 -48 0 -68 40 -38 70 24 24 24 24 44 4z m-177
-15 c19 -12 38 -31 42 -43 14 -37 -23 -117 -47 -102 -22 13 -55 166 -36 166 4
0 22 -10 41 -21z m17131 -331 c22 -22 14 -58 -15 -69 -40 -15 -56 6 -38 49 15
33 33 40 53 20z m178 -50 c-8 -52 -44 -120 -59 -115 -7 2 -11 13 -9 24 2 11
-4 23 -13 26 -36 14 -8 74 50 105 29 15 38 4 31 -40z m-1751 -28 l39 -40 -33
-82 c-53 -132 -291 -608 -391 -783 -166 -288 -352 -566 -559 -835 -115 -150
-351 -430 -361 -430 -4 0 -132 124 -286 275 l-279 274 -158 1 -158 0 6 38 c4
20 8 43 10 50 3 9 45 12 166 12 l161 0 259 -251 c187 -182 263 -250 278 -247
21 3 190 203 340 403 189 251 384 551 545 837 76 136 278 542 291 586 6 19 -3
34 -53 83 l-60 60 -93 -3 -93 -3 -131 -260 c-140 -278 -231 -439 -384 -679
-103 -160 -271 -397 -368 -518 l-58 -73 -3 72 -3 72 84 113 c272 366 471 697
688 1144 l110 224 227 0 228 0 39 -40z m-15228 -59 c16 -33 1 -61 -28 -54 -29
8 -46 48 -29 68 18 21 42 15 57 -14z m-169 -18 c20 -15 32 -33 32 -47 0 -36
-21 -86 -36 -86 -25 0 -73 123 -60 155 6 18 13 15 64 -22z m16816 -315 c16
-26 -4 -52 -43 -56 -26 -3 -31 0 -31 18 0 55 48 79 74 38z m166 -33 c0 -37
-20 -86 -48 -117 -18 -21 -35 -13 -27 13 4 12 1 21 -9 25 -37 14 -10 70 49
102 31 17 35 15 35 -23z m-16646 -87 c18 -41 10 -60 -23 -56 -32 4 -52 48 -31
72 20 25 40 19 54 -16z m-176 -18 c50 -31 58 -75 25 -135 -9 -15 -11 -15 -26
-1 -17 17 -57 117 -57 141 0 20 19 19 58 -5z m16468 -316 c8 -32 -13 -56 -45
-52 -22 3 -26 7 -24 33 4 54 57 69 69 19z m169 -36 c-11 -53 -56 -129 -74
-126 -9 2 -15 12 -13 22 2 9 -2 24 -9 32 -26 32 29 101 84 103 16 1 18 -4 12
-31z m-16269 -65 c16 -21 18 -59 4 -68 -17 -10 -46 4 -57 28 -21 45 24 78 53
40z m-147 -54 c14 -13 21 -32 21 -57 0 -42 -21 -79 -38 -68 -17 10 -62 113
-62 141 0 22 2 23 29 14 15 -6 38 -19 50 -30z m12476 -75 c260 -67 395 -364
279 -610 l-25 -54 -370 0 -369 0 -19 38 c-151 296 54 638 384 641 34 1 88 -6
120 -15z m3557 -199 c10 -22 9 -29 -8 -45 -22 -23 -64 -17 -64 9 0 23 28 61
46 61 8 0 20 -11 26 -25z m168 -47 c0 -29 -35 -101 -61 -124 -17 -15 -22 -16
-29 -5 -4 8 -6 21 -3 29 3 8 0 18 -7 22 -21 13 -2 59 33 80 43 27 67 26 67 -2z
m-15834 -63 c22 -33 15 -60 -16 -60 -33 0 -60 46 -41 69 19 23 38 20 57 -9z
m-172 -41 c41 -20 59 -55 50 -100 -12 -63 -39 -54 -80 28 -25 49 -31 88 -14
88 5 0 25 -7 44 -16z m15606 -289 c0 -29 -22 -47 -52 -43 -32 4 -34 33 -3 64
21 21 29 23 40 14 8 -7 15 -23 15 -35z m162 -46 c-5 -34 -49 -107 -72 -119
-22 -12 -35 2 -26 27 4 9 2 19 -4 23 -24 15 2 62 44 81 49 22 62 20 58 -12z
m-15362 -39 c11 -11 20 -31 20 -45 0 -20 -5 -25 -25 -25 -31 0 -58 46 -44 73
13 22 24 22 49 -3z m-140 -69 c26 -19 37 -63 26 -107 -9 -34 -30 -21 -71 44
-44 71 -46 97 -7 88 15 -4 38 -15 52 -25z m15078 -249 c5 -30 -14 -52 -45 -52
-31 0 -39 24 -18 56 21 32 58 30 63 -4z m162 -55 c0 -45 -89 -157 -103 -130
-2 5 -4 29 -5 54 -2 51 11 69 63 87 43 15 45 14 45 -11z m-14829 -38 c28 -28
22 -64 -11 -64 -28 0 -57 42 -47 68 9 23 33 21 58 -4z m6019 -35 c0 -3 -5 -25
-11 -50 l-11 -44 -87 -2 c-47 -1 -98 -1 -112 0 -28 2 -27 2 -86 -145 -2 -6 5
-14 16 -18 27 -8 26 -18 -4 -83 -22 -46 -27 -52 -48 -47 -22 6 -29 -2 -77 -92
-29 -54 -66 -120 -83 -146 l-30 -48 21 -15 21 -15 -30 -49 c-35 -57 -46 -67
-62 -51 -6 6 -14 11 -18 11 -4 0 -33 -35 -65 -77 -31 -43 -78 -102 -102 -131
-42 -49 -44 -54 -32 -78 13 -23 11 -27 -28 -67 -38 -38 -44 -41 -63 -29 -19
12 -27 8 -98 -60 -42 -41 -98 -92 -126 -115 -47 -40 -48 -43 -32 -61 17 -18
15 -21 -35 -60 -51 -40 -53 -41 -68 -22 -14 19 -19 17 -120 -51 -58 -38 -122
-80 -143 -91 -33 -19 -37 -26 -32 -50 6 -25 2 -29 -46 -54 -49 -25 -53 -25
-65 -9 -12 16 -18 17 -61 5 -26 -7 -64 -21 -84 -31 -31 -15 -79 -22 -79 -11 0
2 35 19 78 38 257 117 547 317 769 528 309 293 573 697 718 1094 l48 132 134
0 c73 0 133 -3 133 -6z m-6181 -25 c39 -14 51 -35 51 -93 0 -63 -19 -60 -69
11 -60 83 -54 107 18 82z m6123 -117 c15 -6 13 -18 -23 -112 -21 -58 -77 -181
-123 -275 -241 -484 -614 -909 -1056 -1203 -211 -140 -472 -274 -492 -254 -7
7 -1 15 18 25 16 9 51 34 79 57 37 31 49 48 47 65 -5 40 108 89 121 53 6 -16
82 24 187 99 126 89 124 87 109 111 -7 12 -11 23 -9 25 3 2 27 20 54 40 46 35
50 36 67 21 21 -19 18 -21 160 108 100 91 114 111 97 138 -11 18 -8 25 33 66
42 42 48 45 67 33 12 -7 23 -11 25 -9 40 48 169 215 186 243 22 37 23 39 5 52
-16 12 -17 16 -5 39 8 14 26 40 41 58 25 29 29 31 45 18 20 -17 11 -29 113
154 39 72 72 136 72 143 0 6 -9 15 -20 18 -25 8 -25 8 9 75 23 47 31 55 53 53
24 -1 29 6 58 83 32 85 40 93 82 76z m8424 -107 c10 -24 -4 -63 -25 -70 -47
-15 -67 24 -31 63 24 26 48 28 56 7z m164 -83 c0 -37 -90 -139 -111 -126 -14
9 -3 93 15 113 29 32 96 41 96 13z m-14257 -34 c38 -52 -12 -83 -52 -32 -16
20 -18 30 -10 46 13 25 37 20 62 -14z m-136 -74 c25 -16 36 -48 31 -90 -5 -45
-24 -39 -72 23 -57 71 -60 98 -13 88 17 -4 42 -13 54 -21z m8939 -191 c171
-279 417 -560 664 -756 177 -142 444 -303 632 -383 37 -15 64 -32 61 -36 -2
-5 -10 -4 -17 1 -7 6 -26 10 -42 10 -16 0 -41 2 -56 6 -21 6 -27 3 -33 -14 -5
-17 -10 -19 -33 -10 -15 6 -41 19 -59 30 -27 17 -31 24 -23 40 11 20 -2 31
-125 99 -33 18 -82 48 -110 67 -49 33 -50 33 -65 13 -15 -21 -16 -20 -63 11
-57 37 -61 43 -47 68 9 17 0 28 -67 83 -43 34 -101 84 -129 110 -44 42 -53 46
-64 33 -19 -23 -30 -19 -77 27 -40 39 -42 43 -26 60 19 21 29 5 -101 160 -111
131 -102 124 -122 107 -15 -12 -20 -9 -50 26 -43 51 -50 73 -29 89 15 11 13
18 -26 82 -24 38 -44 71 -46 73 -1 2 -9 -2 -17 -8 -10 -8 -49 -11 -119 -10
l-105 2 -21 44 c-11 24 -21 46 -21 48 0 3 65 5 144 5 l144 0 48 -77z m4982 5
c29 -29 -7 -86 -47 -73 -27 8 -27 39 -1 65 23 23 31 25 48 8z m-5154 -81 c-2
-7 16 -45 42 -85 44 -70 47 -72 68 -59 21 14 24 12 60 -40 36 -52 37 -55 21
-73 -17 -18 -16 -21 16 -62 58 -76 192 -228 199 -228 4 0 13 7 20 16 12 13 19
9 61 -32 45 -44 47 -49 33 -65 -9 -10 -13 -22 -10 -27 8 -14 195 -174 234
-201 31 -22 34 -22 52 -6 18 17 21 16 62 -16 24 -18 47 -36 52 -40 5 -5 4 -15
-4 -24 -12 -14 -9 -21 23 -50 57 -52 199 -143 235 -150 19 -4 46 -2 63 5 44
19 87 -2 95 -46 3 -19 18 -47 33 -63 62 -68 38 -65 -136 21 -522 256 -1002
699 -1287 1191 l-28 47 51 0 c37 0 49 -3 45 -13z m2644 -64 l-3 -68 -75 0 -75
0 -3 44 c-6 86 -2 91 84 91 l75 0 -3 -67z m2682 59 c0 -16 -59 -100 -81 -116
-40 -27 -50 -21 -45 29 4 48 18 72 51 85 26 11 75 12 75 2z m-13650 -29 c25
-32 22 -47 -13 -51 -18 -2 -30 4 -42 21 -33 51 16 79 55 30z m-118 -93 c18
-22 26 -110 11 -110 -23 1 -113 102 -113 127 0 24 80 10 102 -17z m13282 -166
c8 -20 -19 -64 -38 -64 -24 0 -46 12 -46 24 0 43 70 76 84 40z m-2249 -18 c19
-8 35 -22 35 -30 0 -13 -13 -16 -65 -16 -57 0 -65 2 -65 19 0 16 19 29 58 40
1 1 18 -6 37 -13z m-10593 -73 c22 -20 24 -63 3 -63 -25 0 -65 31 -65 49 0 35
31 42 62 14z m12998 4 c0 -34 -88 -127 -120 -127 -16 0 -4 89 15 110 25 28
105 40 105 17z m-13117 -99 c32 -16 53 -118 25 -118 -19 0 -118 102 -118 122
0 14 6 16 38 11 20 -3 45 -10 55 -15z m12612 -164 c0 -34 -40 -61 -63 -42 -20
17 -10 51 18 65 34 17 45 12 45 -23z m-12141 -65 c45 -36 22 -76 -29 -49 -27
15 -37 33 -29 55 8 21 26 19 58 -6z m12296 -27 c0 -29 -98 -112 -133 -112 -17
0 -18 5 -12 38 10 57 39 82 97 82 26 0 48 -3 48 -8z m-12386 -94 c29 -26 47
-98 25 -98 -26 0 -139 89 -139 110 0 5 20 10 44 10 32 0 52 -6 70 -22z m11844
-87 c2 -12 -2 -29 -8 -37 -18 -21 -57 -18 -65 6 -8 24 0 39 29 50 29 12 40 7
44 -19z m-11344 -60 c19 -21 12 -51 -14 -51 -28 0 -64 34 -57 53 9 23 50 21
71 -2z m11445 -47 c37 -8 39 -23 8 -52 -28 -26 -114 -65 -127 -57 -14 9 9 67
37 93 26 24 34 25 82 16z m-11516 -82 c20 -22 42 -81 33 -89 -12 -13 -156 66
-156 86 0 25 101 27 123 3z m2435 -16 c-10 -7 -15 -15 -13 -18 12 -12 -27 -79
-51 -88 -37 -14 -64 -12 -64 5 0 7 -8 19 -17 24 -16 9 -16 12 -3 21 8 5 11 10
5 11 -5 0 26 13 70 28 97 34 94 33 73 17z m8560 -7 c8 -42 -59 -63 -82 -26 -9
15 -7 21 9 33 25 19 69 14 73 -7z m-10497 -29 c20 -11 26 -45 9 -55 -6 -4 -24
-4 -40 0 -23 5 -30 12 -30 29 0 37 22 46 61 26z m8613 -35 c16 -11 22 -22 19
-35 -9 -34 -29 -43 -67 -30 -26 8 -35 17 -38 40 -4 23 0 30 16 33 39 8 47 7
70 -8z m1426 -80 c0 -18 -8 -29 -26 -37 -23 -11 -29 -10 -45 11 -25 30 -10 51
37 51 30 0 34 -3 34 -25z m553 6 c17 -17 -20 -49 -76 -66 -28 -8 -57 -15 -64
-15 -21 0 -15 30 13 68 25 32 30 34 71 29 25 -2 50 -10 56 -16z m-10125 -10
c8 -4 12 -19 10 -32 -2 -19 -9 -24 -32 -24 -32 0 -53 23 -43 49 7 17 43 21 65
7z m961 -25 c4 -22 -23 -46 -51 -46 -23 0 -37 48 -17 61 23 15 63 6 68 -15z
m-1479 4 c17 -9 60 -69 60 -84 0 -21 -160 29 -168 52 -2 7 11 19 30 27 40 17
54 18 78 5z m2039 -22 l35 -14 -37 -22 c-46 -27 -133 -53 -152 -46 -12 5 -12
10 1 37 34 67 72 78 153 45z m7096 -8 c0 -20 -6 -26 -29 -28 -30 -4 -46 10
-46 41 0 15 7 18 38 15 32 -3 37 -6 37 -28z m-8141 7 c28 -21 13 -57 -24 -57
-39 0 -61 37 -34 57 23 16 35 16 58 0z m8615 4 c24 -15 -2 -61 -33 -61 -32 0
-53 34 -35 56 13 16 47 18 68 5z m-964 -66 c31 -40 31 -55 2 -55 -27 0 -116
28 -135 43 -17 14 2 35 42 45 43 12 63 5 91 -33z m1503 -31 c35 -23 22 -37
-52 -57 -102 -28 -122 -11 -61 50 38 38 63 39 113 7z m-9628 -39 c49 -50 33
-62 -62 -44 -81 16 -96 33 -51 61 44 27 75 22 113 -17z m1007 1 c37 -32 25
-44 -61 -58 -89 -15 -104 -2 -56 47 41 42 77 45 117 11z m7580 1 c27 -15 64
-62 56 -71 -8 -7 -87 -6 -128 3 -44 9 -43 36 2 60 45 24 42 23 70 8z m-8092
-38 c19 -17 35 -35 35 -39 0 -13 -84 -23 -129 -15 -51 9 -53 26 -4 60 48 32
55 32 98 -6z m8627 2 c41 -36 31 -49 -37 -51 -118 -4 -132 7 -72 54 42 34 69
33 109 -3z"/>
<path d="M3304 15188 l-19 -23 23 19 c12 11 22 21 22 23 0 8 -8 2 -26 -19z"/>
<path d="M11445 3850 l-29 -30 94 -95 94 -95 28 27 c15 15 28 31 28 37 0 11
-170 186 -180 186 -4 0 -19 -14 -35 -30z"/>
<path d="M3376 11634 c-32 -31 -159 -422 -241 -739 -160 -622 -237 -1285 -221
-1910 8 -313 14 -383 35 -394 9 -5 388 -6 844 -3 949 6 852 -8 793 111 -32 63
-38 69 -73 74 -21 4 -344 7 -719 7 l-681 0 -7 61 c-9 94 -7 474 4 659 21 342
67 707 121 967 17 82 31 148 32 149 1 1 20 5 42 8 l41 7 13 -113 c53 -466 187
-989 373 -1453 82 -207 72 -195 167 -195 97 0 112 11 89 68 -188 455 -271 708
-352 1067 -96 430 -143 903 -134 1368 3 172 2 250 -6 256 -20 16 -106 20 -120
5z m87 -427 c7 -491 28 -701 112 -1121 63 -317 188 -723 314 -1026 l59 -141
-56 3 -56 3 -59 145 c-189 473 -326 1005 -378 1475 -7 61 -17 116 -22 123 -12
15 -125 6 -144 -12 -28 -27 -113 -522 -149 -876 -21 -202 -32 -996 -15 -1028
l12 -22 718 0 719 0 26 -46 c14 -26 26 -48 26 -50 0 -2 -358 -4 -795 -4 -748
0 -796 1 -803 18 -13 30 -8 906 6 1052 43 467 118 891 228 1295 41 150 181
574 195 591 5 6 20 9 33 7 l24 -5 5 -381z"/>
<path d="M15667 7608 c-75 -122 -74 -120 -24 -149 28 -16 39 -7 77 65 l35 67
-25 19 c-33 25 -47 25 -63 -2z"/>
<path d="M15930 7384 c-39 -72 -41 -76 -23 -90 26 -19 54 -27 62 -17 5 4 24
38 45 75 l37 67 -40 20 -39 21 -42 -76z"/>
<path d="M15487 7298 c-62 -97 -61 -94 -23 -117 18 -12 36 -21 39 -21 3 0 24
32 47 72 39 68 40 73 23 86 -48 36 -51 35 -86 -20z"/>
<path d="M2711 7326 c-15 -18 24 -177 110 -447 336 -1062 868 -1985 1621
-2816 327 -360 528 -505 843 -608 198 -65 288 -79 510 -79 218 0 313 14 482
70 449 149 790 481 927 899 45 138 57 214 63 390 6 206 -7 297 -73 494 -87
261 -252 549 -472 822 -101 126 -587 640 -622 659 -11 6 -170 10 -409 10 -385
0 -390 0 -396 -21 -4 -13 0 -28 12 -42 55 -66 301 -325 538 -567 359 -366 498
-535 629 -762 204 -357 231 -616 92 -886 -109 -210 -285 -354 -506 -413 -73
-20 -109 -23 -255 -23 -188 0 -266 14 -404 73 -128 54 -274 161 -364 265 l-48
56 28 25 c26 23 34 25 136 24 77 -1 112 -5 122 -15 7 -8 32 -14 54 -14 22 0
43 -4 46 -10 10 -16 806 -13 828 3 16 11 17 46 15 432 l-3 420 -423 3 c-369 2
-423 0 -428 -13 -4 -10 -20 -15 -45 -15 -21 0 -39 -4 -39 -10 0 -7 -167 -10
-482 -10 l-483 0 -54 83 c-246 371 -444 736 -609 1122 -64 150 -162 407 -162
424 0 8 356 12 1212 13 1140 3 1213 4 1216 20 3 15 -223 279 -359 420 l-37 38
-1400 0 c-1188 0 -1401 -2 -1411 -14z m2821 -55 c7 -10 81 -94 163 -186 83
-92 152 -172 154 -177 3 -8 -352 -9 -1198 -6 -1157 6 -1202 5 -1211 -12 -29
-55 293 -798 511 -1177 140 -245 333 -543 352 -543 7 -1 229 0 495 0 427 1
482 -1 482 -15 0 -11 11 -15 40 -15 36 0 40 -2 40 -25 0 -22 -4 -25 -40 -25
-22 0 -40 -4 -40 -10 0 -7 -178 -10 -515 -10 l-515 0 -48 65 c-185 252 -480
775 -632 1120 -109 247 -280 696 -280 736 0 5 459 9 1145 9 1334 0 1211 -13
1099 115 l-65 75 -1017 2 c-559 1 -1136 2 -1281 2 -237 1 -265 -1 -274 -16
-25 -39 174 -623 345 -1013 183 -417 471 -931 690 -1232 l39 -53 654 0 c402 0
655 -4 655 -9 0 -6 17 -11 38 -13 30 -2 38 -7 40 -25 3 -20 -1 -23 -33 -23
-22 0 -38 -6 -41 -15 -5 -13 -74 -15 -537 -15 l-531 0 -43 -42 c-24 -23 -43
-51 -43 -61 0 -52 537 -666 710 -811 141 -119 333 -227 495 -279 162 -52 231
-61 470 -62 218 0 235 1 338 28 132 33 217 66 323 125 331 182 558 493 641
875 25 116 25 354 -1 462 -44 191 -111 358 -218 545 -145 252 -327 480 -637
793 l-215 217 -206 -2 c-204 -3 -205 -3 -205 -25 0 -15 86 -111 286 -315 158
-162 320 -332 361 -380 349 -399 545 -810 524 -1098 -30 -435 -344 -795 -764
-876 -101 -19 -347 -18 -452 2 -174 33 -332 103 -480 215 -72 55 -249 234
-379 383 l-51 60 27 28 27 28 278 0 c179 0 278 -4 278 -10 0 -5 18 -10 40 -10
36 0 40 -2 40 -25 0 -22 -4 -25 -40 -25 -22 0 -40 -4 -40 -10 0 -6 -48 -10
-125 -10 l-126 0 -49 -46 c-28 -26 -50 -52 -50 -58 0 -7 45 -57 99 -113 156
-158 306 -249 501 -301 84 -23 115 -26 270 -26 152 0 186 3 258 22 158 43 278
112 391 223 147 146 231 330 247 544 21 266 -168 659 -500 1040 -39 44 -171
184 -296 310 -243 248 -485 503 -520 548 l-21 27 363 0 363 0 258 -268 c361
-374 534 -598 680 -882 137 -265 196 -462 204 -685 8 -237 -33 -430 -136 -640
-73 -148 -152 -254 -273 -371 -251 -239 -567 -376 -906 -393 -313 -15 -537 25
-789 144 -243 114 -419 265 -753 645 -681 776 -1205 1711 -1509 2693 -53 172
-101 344 -101 365 0 9 283 12 1379 12 1342 0 1380 -1 1393 -19z m-43 -171 l42
-50 -1139 0 c-989 0 -1141 -2 -1152 -15 -13 -16 1 -66 96 -328 144 -395 317
-765 527 -1127 137 -236 331 -532 361 -552 6 -4 246 -8 534 -8 341 0 522 -3
522 -10 0 -5 18 -10 40 -10 36 0 40 -2 40 -25 0 -22 -4 -25 -40 -25 -22 0 -40
-4 -40 -10 0 -7 -221 -10 -644 -10 l-644 0 -104 158 c-289 436 -515 868 -711
1357 -64 160 -211 595 -222 657 l-7 38 223 3 c123 1 686 3 1250 5 l1026 2 42
-50z m722 -767 c107 -109 224 -232 260 -273 231 -262 421 -559 515 -800 105
-270 124 -456 73 -711 -89 -449 -446 -823 -894 -938 -120 -31 -205 -41 -360
-41 -330 0 -614 93 -870 285 -134 101 -437 423 -656 698 l-98 122 26 27 27 28
523 0 c342 0 523 -3 523 -10 0 -5 18 -10 41 -10 36 0 40 -2 37 -22 -2 -19 -10
-24 -40 -26 -21 -2 -38 -7 -38 -13 0 -5 -115 -9 -287 -9 l-287 0 -48 -47 c-26
-26 -48 -52 -48 -58 0 -12 92 -117 257 -292 192 -205 356 -315 564 -381 148
-48 209 -55 417 -50 167 4 197 8 277 32 318 96 555 326 665 646 91 265 61 508
-101 831 -134 269 -290 467 -696 886 -167 171 -303 314 -303 317 0 3 73 6 163
6 l163 0 195 -197z m-36 -1493 l0 -385 -385 0 -385 0 -3 375 c-1 206 -1 379 2
385 2 6 140 10 387 10 l384 0 0 -385z"/>
<path d="M5460 5172 c0 -4 151 -158 335 -342 l335 -335 0 110 0 110 -233 233
-232 232 -103 0 c-56 0 -102 -3 -102 -8z"/>
<path d="M5840 5172 c0 -9 273 -282 283 -282 4 0 7 46 7 102 l0 102 -42 43
-42 43 -103 0 c-57 0 -103 -3 -103 -8z"/>
<path d="M5450 4785 l0 -110 88 -88 88 -88 107 3 107 3 -195 195 -195 195 0
-110z"/>
<path d="M16233 7248 c-15 -18 -75 -139 -71 -143 6 -5 67 -35 72 -35 7 0 76
136 76 148 0 5 -12 15 -27 23 -16 7 -31 15 -34 17 -3 1 -11 -3 -16 -10z"/>
<path d="M15757 7073 c-21 -37 -35 -72 -33 -79 3 -7 18 -20 35 -28 l30 -16 41
69 c22 38 40 73 40 78 0 8 -56 43 -68 43 -4 0 -24 -31 -45 -67z"/>
<path d="M15314 7022 c-73 -113 -69 -97 -31 -121 19 -12 37 -21 40 -21 7 0 87
127 87 139 0 8 -52 51 -62 51 -1 0 -17 -22 -34 -48z"/>
<path d="M16021 6860 c-23 -39 -39 -75 -36 -80 11 -17 67 -42 75 -33 4 4 24
38 44 75 l37 68 -33 20 c-18 11 -36 20 -39 20 -4 0 -25 -32 -48 -70z"/>
<path d="M15584 6792 c-74 -113 -70 -99 -32 -122 18 -11 36 -20 39 -20 3 0 27
31 52 69 l46 70 -27 19 c-15 10 -32 21 -37 24 -6 4 -24 -15 -41 -40z"/>
<path d="M15113 6729 c-24 -32 -43 -63 -43 -68 0 -10 48 -51 59 -51 4 0 29 30
56 66 l49 67 -30 23 c-16 13 -33 24 -39 23 -5 0 -29 -27 -52 -60z"/>
<path d="M15830 6539 l-44 -72 30 -23 c37 -30 46 -30 65 4 8 15 27 48 42 73
l28 47 -36 21 c-20 11 -37 21 -38 21 -1 0 -22 -32 -47 -71z"/>
<path d="M15365 6469 l-49 -70 30 -24 c16 -13 32 -24 36 -25 9 0 98 124 98
137 0 8 -53 53 -63 53 -2 0 -26 -32 -52 -71z"/>
<path d="M15624 6224 l-48 -67 30 -23 c16 -13 34 -24 39 -24 12 0 95 120 95
136 0 12 -43 44 -59 44 -6 0 -31 -30 -57 -66z"/>
<path d="M9150 17324 c-1702 -186 -3221 -840 -4516 -1944 -186 -158 -562 -525
-744 -725 -913 -1005 -1568 -2234 -1895 -3554 -119 -484 -194 -990 -226 -1536
-14 -248 -6 -875 15 -1100 8 -88 20 -214 26 -280 15 -163 36 -293 51 -311 14
-17 326 -18 1677 -7 691 5 842 9 846 20 5 13 -77 151 -98 165 -6 4 -518 8
-1137 8 l-1126 0 -6 38 c-3 20 -13 102 -21 182 -80 757 -49 1577 90 2330 20
107 100 467 119 534 8 28 34 123 59 211 228 805 625 1644 1109 2340 929 1336
2222 2356 3721 2936 648 251 1357 424 2006 489 118 12 226 24 240 28 24 7 25
10 25 97 l0 90 -45 1 c-25 1 -101 -4 -170 -12z m173 -84 l0 -44 -204 -23
c-291 -32 -404 -49 -664 -100 -932 -180 -1809 -517 -2625 -1006 -1361 -816
-2483 -2056 -3156 -3490 -372 -793 -603 -1589 -713 -2467 -56 -443 -72 -1031
-41 -1540 14 -235 49 -532 65 -548 10 -12 207 -14 1148 -13 l1136 2 25 -44
c14 -24 26 -47 26 -52 0 -13 -2413 4 -2421 17 -8 13 -23 130 -48 378 -68 670
-50 1400 50 2060 176 1163 609 2281 1264 3270 794 1198 1890 2171 3163 2809
898 449 1846 723 2872 830 126 13 123 14 123 -39z"/>
<path d="M4080 3786 c0 -2 8 -10 18 -17 15 -13 16 -12 3 4 -13 16 -21 21 -21
13z"/>
<path d="M14051 5104 c-27 -35 -26 -59 4 -89 47 -48 115 -19 115 48 0 66 -78
93 -119 41z"/>
<path d="M14267 5112 c-38 -42 -7 -122 47 -122 60 0 92 75 51 120 -23 25 -76
26 -98 2z"/>
<path d="M13950 4942 c-49 -40 -15 -122 50 -122 36 0 60 29 60 72 0 62 -61 89
-110 50z"/>
<path d="M14160 4940 c-43 -43 -11 -120 49 -120 32 0 71 39 71 70 0 10 -9 29
-21 44 -25 32 -70 35 -99 6z"/>
<path d="M14370 4940 c-42 -42 -10 -120 50 -120 38 0 70 32 70 70 0 38 -32 70
-70 70 -17 0 -39 -9 -50 -20z"/>
<path d="M13963 4768 c-47 -23 -47 -92 1 -123 45 -30 96 3 96 61 0 59 -45 87
-97 62z"/>
<path d="M14166 4759 c-19 -15 -26 -30 -26 -54 0 -36 36 -75 70 -75 28 0 59
32 66 67 5 26 1 37 -19 57 -32 31 -56 33 -91 5z"/>
<path d="M14375 4755 c-14 -13 -25 -36 -25 -50 0 -31 41 -75 70 -75 29 0 70
44 70 75 0 31 -41 75 -70 75 -11 0 -32 -11 -45 -25z"/>
</g>
</svg>
