<?xml version="1.0" standalone="no"?>
<!DOCTYPE svg PUBLIC "-//W3C//DTD SVG 20010904//EN"
 "http://www.w3.org/TR/2001/REC-SVG-20010904/DTD/svg10.dtd">
<svg version="1.0" xmlns="http://www.w3.org/2000/svg"
 width="8418.000000pt" height="1171.000000pt" viewBox="0 0 8418.000000 1171.000000"
 preserveAspectRatio="xMidYMid meet">

<g transform="translate(0.000000,1171.000000) scale(0.100000,-0.100000)"
fill="#000000" stroke="none">
<path d="M6158 11280 c-1269 -65 -2462 -510 -3440 -1282 -382 -301 -781 -708
-1077 -1098 -933 -1225 -1357 -2779 -1181 -4321 132 -1158 604 -2261 1349
-3154 346 -414 587 -624 894 -779 278 -141 554 -211 872 -223 336 -12 646 54
950 202 423 205 754 539 959 967 95 197 142 348 172 552 20 136 15 424 -10
561 -75 414 -286 836 -616 1230 -41 49 -176 193 -299 320 -399 411 -603 651
-789 930 -276 412 -418 781 -468 1211 -20 173 -14 543 11 704 85 544 281 999
616 1430 92 119 294 328 419 432 800 672 1872 879 2855 553 974 -323 1707
-1114 1959 -2110 113 -450 115 -943 5 -1372 -81 -316 -264 -678 -507 -1003
-170 -228 -298 -373 -652 -740 -261 -270 -369 -397 -479 -559 -312 -462 -471
-929 -471 -1386 1 -969 789 -1805 1806 -1916 132 -14 391 -7 519 15 262 45
485 123 705 247 207 117 360 242 569 463 552 586 991 1298 1266 2055 459 1259
483 2647 69 3924 -385 1188 -1121 2212 -2129 2965 -906 677 -2008 1088 -3145
1171 -201 15 -554 20 -732 11z"/>
<path d="M45000 9496 c-374 -66 -654 -257 -790 -541 -101 -209 -123 -466 -59
-696 66 -238 236 -461 450 -588 145 -86 209 -139 263 -219 101 -147 138 -368
94 -567 -47 -217 -248 -385 -533 -444 l-80 -16 -3 -2198 -2 -2197 885 0 885 0
0 2198 0 2199 -65 12 c-100 18 -228 68 -308 120 -188 123 -268 293 -254 541
16 268 110 415 364 567 182 110 314 256 404 447 67 144 84 227 84 416 0 141
-4 177 -23 249 -99 363 -369 606 -782 703 -111 25 -418 34 -530 14z"/>
<path d="M16642 9419 c-721 -44 -1389 -294 -1924 -721 -129 -103 -370 -343
-469 -468 -556 -697 -823 -1600 -795 -2685 12 -484 58 -860 151 -1243 369
-1518 1405 -2311 3178 -2433 227 -15 817 -7 997 15 1054 127 1864 554 2394
1260 305 408 508 924 567 1446 53 468 -212 901 -647 1056 -193 69 -384 79
-579 29 -174 -44 -306 -118 -443 -250 -186 -178 -278 -381 -302 -666 -27 -325
-32 -375 -50 -445 -83 -324 -421 -627 -855 -767 -233 -75 -455 -103 -755 -94
-218 6 -351 23 -520 64 -608 148 -1000 561 -1170 1233 -72 284 -102 563 -102
955 -1 566 69 962 228 1304 255 547 749 803 1466 761 356 -22 619 -102 856
-262 263 -177 456 -487 526 -843 44 -227 53 -531 23 -769 -9 -72 -14 -132 -12
-134 3 -3 446 120 986 274 l981 279 -7 145 c-26 558 -131 1003 -331 1401 -273
545 -725 966 -1314 1222 -457 199 -971 308 -1588 337 -232 11 -299 11 -490 -1z"/>
<path d="M21705 9233 c-348 -74 -617 -346 -689 -695 -14 -70 -16 -394 -16
-3293 l0 -3215 885 0 885 0 0 1483 c0 870 4 1550 10 1647 22 357 90 641 217
895 198 398 507 650 908 740 111 25 395 31 540 10 563 -78 855 -435 950 -1158
30 -229 35 -531 35 -2069 l0 -1548 885 0 885 0 0 1745 c0 1790 -2 1926 -41
2269 -57 511 -155 880 -329 1231 -296 601 -749 918 -1450 1017 -142 19 -618
16 -785 -6 -524 -69 -865 -222 -1156 -523 -52 -54 -121 -133 -152 -175 -263
-355 -452 -866 -567 -1533 -11 -66 -22 -129 -25 -140 -4 -18 -10 -20 -46 -17
l-41 4 6 67 c4 36 41 543 82 1126 65 913 75 1086 71 1250 -3 174 -6 197 -31
275 -108 330 -368 561 -700 619 -83 15 -248 12 -331 -6z"/>
<path d="M53540 8445 l0 -805 1240 0 1240 0 0 -2805 0 -2805 885 0 885 0 0
2805 0 2805 868 0 c555 0 890 4 931 11 325 52 579 284 661 604 41 157 23 367
-44 518 -102 230 -324 410 -575 463 -56 11 -527 14 -3078 14 l-3013 0 0 -805z"/>
<path d="M65910 5640 l0 -3610 885 0 885 0 0 63 c0 34 -18 661 -40 1392 -22
732 -40 1360 -40 1398 l0 67 48 0 48 0 1023 -1456 c563 -801 1029 -1458 1035
-1460 6 -2 471 -3 1033 -2 l1023 3 -1118 1400 c-614 770 -1127 1413 -1139
1429 l-23 28 -630 86 -630 87 0 47 c0 27 3 48 8 48 4 0 255 43 557 95 450 77
553 98 565 113 168 208 1316 1690 1343 1735 21 34 50 98 64 142 24 71 27 95
27 220 1 157 -10 207 -72 333 -94 191 -269 330 -482 383 -111 28 -290 23 -390
-11 -131 -44 -261 -129 -337 -219 -15 -18 -438 -628 -938 -1355 l-911 -1321
-52 -3 -52 -3 0 68 c0 37 18 669 40 1403 31 1030 40 1469 40 1923 l0 587 -885
0 -885 0 0 -3610z"/>
<path d="M34178 8349 c-889 -60 -1691 -436 -2204 -1032 -434 -505 -667 -1104
-725 -1867 -14 -188 -6 -627 16 -850 71 -724 279 -1306 620 -1735 76 -97 252
-273 349 -351 365 -295 855 -496 1436 -588 379 -60 961 -77 1296 -36 751 90
1395 378 1878 840 494 473 782 1077 883 1855 25 197 25 784 -1 1030 -80 772
-293 1342 -665 1787 -299 357 -741 631 -1258 782 -471 136 -1102 201 -1625
165z m502 -1529 c207 -25 365 -71 524 -153 541 -276 803 -908 756 -1817 -23
-450 -107 -759 -273 -1005 -52 -77 -175 -200 -252 -252 -236 -158 -580 -236
-976 -219 -582 24 -992 263 -1222 713 -96 188 -151 363 -189 605 -29 188 -37
640 -14 853 86 807 438 1200 1142 1274 115 12 406 13 504 1z"/>
<path d="M41615 8350 c-352 -26 -621 -92 -870 -214 -166 -82 -282 -164 -415
-296 -172 -170 -281 -327 -406 -585 -158 -327 -283 -746 -365 -1232 l-22 -131
-36 5 c-20 3 -38 8 -41 10 -4 4 146 2174 157 2251 l5 42 -891 0 -891 0 0
-3085 0 -3085 890 0 890 0 0 1553 c0 989 4 1594 10 1667 47 516 213 923 490
1200 250 250 548 370 920 370 669 0 1028 -297 1164 -963 62 -304 60 -229 63
-2110 l4 -1717 890 0 890 0 -4 1813 c-3 1214 -8 1853 -15 1937 -37 412 -77
672 -146 941 -169 664 -477 1124 -925 1383 -204 117 -469 201 -751 236 -118
15 -451 20 -595 10z"/>
<path d="M49310 8353 c-463 -31 -865 -141 -1256 -342 -274 -141 -496 -302
-715 -521 -513 -511 -807 -1191 -870 -2013 -23 -295 -2 -811 46 -1127 118
-783 424 -1391 904 -1791 256 -214 532 -364 881 -479 368 -122 719 -180 1212
-200 1269 -51 2185 328 2674 1107 186 297 313 694 354 1108 14 141 14 495 0
650 -11 117 -26 235 -32 240 -2 2 -1212 -205 -1635 -280 l-93 -17 0 -98 c0
-259 -67 -542 -172 -723 -88 -152 -192 -248 -353 -327 -159 -78 -321 -110
-551 -110 -808 0 -1260 352 -1413 1100 -52 252 -71 703 -42 970 93 856 528
1300 1273 1300 244 0 442 -39 615 -120 103 -48 223 -130 273 -187 48 -55 107
-169 154 -298 79 -216 125 -295 240 -413 125 -130 280 -218 466 -265 123 -31
321 -30 445 2 111 28 270 103 352 165 149 113 269 279 329 453 80 234 72 443
-27 690 -331 833 -1119 1356 -2249 1493 -266 32 -620 47 -810 33z"/>
<path d="M62120 8353 c-279 -19 -493 -51 -715 -107 -564 -142 -1047 -409
-1425 -786 -631 -631 -921 -1505 -861 -2595 53 -974 300 -1658 775 -2153 511
-533 1249 -806 2271 -841 534 -19 949 33 1375 171 480 155 857 379 1194 707
481 470 757 1049 862 1811 21 158 30 665 15 885 -41 588 -151 1042 -351 1450
-407 833 -1171 1306 -2310 1430 -256 28 -646 41 -830 28z m587 -1557 c143 -30
235 -62 358 -124 126 -63 196 -113 301 -214 248 -239 390 -563 450 -1023 24
-179 24 -617 1 -803 -56 -446 -179 -740 -395 -943 -213 -202 -491 -297 -911
-315 -836 -35 -1371 356 -1555 1136 -50 211 -60 321 -61 655 0 197 5 348 13
415 86 690 363 1062 893 1196 166 42 299 54 554 49 199 -3 246 -7 352 -29z"/>
<path d="M73630 8353 c-109 -6 -317 -34 -440 -59 -598 -120 -1126 -398 -1541
-813 -477 -477 -759 -1086 -856 -1846 -22 -174 -25 -774 -5 -980 96 -973 396
-1633 957 -2103 355 -298 858 -510 1438 -606 446 -75 1039 -91 1471 -41 882
102 1578 436 2044 980 369 431 572 955 612 1578 12 174 1 489 -19 563 l-7 29
-770 110 -769 111 -3 56 -3 57 123 39 c68 21 336 106 596 187 l472 149 0 35
c0 72 -32 310 -60 451 -221 1105 -928 1781 -2110 2020 -330 67 -808 102 -1130
83z m480 -1429 c582 -99 912 -515 1005 -1269 8 -65 12 -122 7 -126 -9 -9
-2553 -771 -2558 -767 -1 2 -8 96 -14 210 -29 563 54 1051 235 1384 183 336
487 540 870 584 107 12 338 4 455 -16z m1349 -1673 c86 -200 115 -361 107
-586 -10 -307 -91 -554 -251 -767 -198 -264 -506 -442 -881 -509 -143 -26
-470 -31 -624 -10 -359 48 -618 166 -825 375 -145 145 -239 305 -315 534 -23
68 -40 125 -38 127 3 4 2789 884 2799 884 4 1 16 -21 28 -48z"/>
<path d="M81380 8354 c-1032 -62 -1585 -507 -1923 -1549 -72 -221 -153 -567
-197 -840 l-11 -70 -40 3 c-35 4 -39 7 -39 31 0 31 147 2106 156 2204 l6 67
-891 0 -891 0 0 -3085 0 -3085 890 0 889 0 4 1618 c3 1756 1 1674 58 1942 52
238 166 509 291 685 190 269 462 450 778 520 102 22 369 31 500 15 534 -62
833 -359 954 -950 62 -298 59 -214 63 -2102 l4 -1728 890 0 890 0 -4 1822 c-4
1842 -5 1872 -42 2213 -126 1136 -539 1846 -1242 2135 -149 61 -345 113 -513
135 -122 16 -451 26 -580 19z"/>
<path d="M30915 8214 c-478 -48 -755 -144 -1030 -359 -453 -354 -750 -1016
-900 -2010 -14 -93 -28 -187 -31 -207 -6 -36 -7 -38 -45 -38 -36 0 -39 2 -39
28 0 15 36 598 80 1295 44 698 80 1271 80 1273 0 2 -358 4 -795 4 l-795 0 0
-3085 0 -3085 885 0 885 0 0 1453 c0 866 4 1512 10 1600 30 440 145 736 369
950 210 201 487 317 896 376 204 30 505 44 748 36 l207 -7 1 103 c0 57 10 454
22 881 19 680 20 778 7 783 -17 7 -499 15 -555 9z"/>
</g>
</svg>
